<svg width="64" height="64" viewBox="0 0 64 64" fill="none" xmlns="http://www.w3.org/2000/svg">
<path d="M23 46C22.63 46 22.27 46 21.9 46.05C19.1858 46.3228 16.6699 47.5943 14.8405 49.6177C13.0111 51.6412 11.9987 54.2722 12 57V60.5C12 60.8978 12.158 61.2794 12.4393 61.5607C12.7206 61.842 13.1022 62 13.5 62H50.5C50.8978 62 51.2794 61.842 51.5607 61.5607C51.842 61.2794 52 60.8978 52 60.5V57C52 56.6467 52 56.2967 52 55.95C51.7559 53.4165 50.6408 51.046 48.8446 49.2425C47.0485 47.4391 44.6825 46.3144 42.15 46.06V46.06C41.73 46 41.37 46 41 46H36V43.16C37.317 42.5845 38.4945 41.7319 39.4523 40.6603C40.41 39.5886 41.1255 38.3231 41.55 36.95C42.7229 36.8065 43.8071 36.2523 44.6103 35.3855C45.4135 34.5188 45.8838 33.3956 45.9377 32.2152C45.9917 31.0347 45.6258 29.8733 44.905 28.937C44.1841 28.0006 43.155 27.3498 42 27.1V26H42.5C42.8978 26 43.2794 25.842 43.5607 25.5607C43.842 25.2793 44 24.8978 44 24.5V15.93C45.1319 15.7664 46.2064 15.3279 47.1296 14.653C48.0529 13.9781 48.7967 13.0873 49.296 12.0584C49.7953 11.0296 50.035 9.89405 49.994 8.75116C49.953 7.60828 49.6327 6.49284 49.0609 5.5024C48.4892 4.51195 47.6835 3.67668 46.7143 3.06962C45.7451 2.46256 44.6419 2.10221 43.5012 2.02008C42.3606 1.93795 41.2171 2.13655 40.171 2.59849C39.1248 3.06044 38.2077 3.77168 37.5 4.67C36.8449 3.83792 36.0096 3.16533 35.0569 2.70287C34.1042 2.2404 33.059 2.00012 32 2.00012C30.941 2.00012 29.8958 2.2404 28.9431 2.70287C27.9904 3.16533 27.1551 3.83792 26.5 4.67C25.7923 3.77168 24.8752 3.06044 23.829 2.59849C22.7829 2.13655 21.6394 1.93795 20.4988 2.02008C19.3581 2.10221 18.2549 2.46256 17.2857 3.06962C16.3165 3.67668 15.5108 4.51195 14.9391 5.5024C14.3673 6.49284 14.047 7.60828 14.006 8.75116C13.965 9.89405 14.2047 11.0296 14.704 12.0584C15.2033 13.0873 15.9472 13.9781 16.8704 14.653C17.7936 15.3279 18.8681 15.7664 20 15.93V24.5C20 24.8978 20.158 25.2793 20.4393 25.5607C20.7206 25.842 21.1022 26 21.5 26H22V27.1C20.8515 27.3556 19.8299 28.008 19.1149 28.9425C18.4 29.877 18.0375 31.0337 18.0913 32.209C18.145 33.3844 18.6116 34.5032 19.4088 35.3685C20.2061 36.2339 21.283 36.7903 22.45 36.94C22.8732 38.315 23.5882 39.5824 24.546 40.6559C25.5038 41.7293 26.6819 42.5835 28 43.16V46H23ZM23 60V55.06C23 54.7948 22.8946 54.5404 22.7071 54.3529C22.5196 54.1654 22.2652 54.06 22 54.06C21.7348 54.06 21.4804 54.1654 21.2929 54.3529C21.1054 54.5404 21 54.7948 21 55.06V60H14V57C14 56.7067 14 56.42 14 56.14C14.1903 54.0537 15.1025 52.0992 16.5793 50.6133C18.056 49.1273 20.0049 48.2032 22.09 48C22.39 48 22.69 48 23 48H28.71L29.07 48.19L29.42 48.38C29.59 48.46 29.77 48.53 29.94 48.59L30.28 48.72C30.4742 48.7766 30.6711 48.8233 30.87 48.86H31.01V51.24L26.01 52.9C25.7166 53.0037 25.4628 53.1961 25.2836 53.4505C25.1044 53.705 25.0088 54.0088 25.01 54.32V60H23ZM30.79 43.92L31 44C31.31 44 31.63 44 32 44C32.37 44 32.64 44 33 44H33.26L33.92 43.9H34.05V46.53L33.95 46.59L33.75 46.69L33.37 46.85L33.17 46.92L32.77 47.02H32.6C32.229 47.0794 31.851 47.0794 31.48 47.02H31.31L30.91 46.92L30.71 46.85L30.33 46.69L30.13 46.59L30.03 46.53V43.8H30.16L30.79 43.92ZM41.9 48C44.1277 48.2239 46.192 49.27 47.6898 50.9342C49.1875 52.5984 50.0112 54.7611 50 57V60H43V55.06C43 54.7948 42.8946 54.5404 42.7071 54.3529C42.5196 54.1654 42.2652 54.06 42 54.06C41.7348 54.06 41.4804 54.1654 41.2929 54.3529C41.1054 54.5404 41 54.7948 41 55.06V60H27V54.72L32 53.06C32.2934 52.9563 32.5473 52.7639 32.7264 52.5094C32.9056 52.255 33.0012 51.9512 33 51.64V48.89H33.14C33.3389 48.8533 33.5358 48.8066 33.73 48.75L34.07 48.62C34.24 48.55 34.42 48.49 34.59 48.41L34.94 48.22L35.3 48.03H41C41.31 48 41.61 48 41.9 48ZM44 32C44.0003 32.6206 43.8081 33.2261 43.4499 33.733C43.0917 34.2398 42.5852 34.6231 42 34.83V29.17C42.5852 29.3769 43.0917 29.7602 43.4499 30.267C43.8081 30.7739 44.0003 31.3793 44 32V32ZM20.6 14C19.7502 13.9318 18.932 13.6474 18.2231 13.174C17.5142 12.7005 16.9381 12.0536 16.5495 11.2948C16.161 10.536 15.973 9.69044 16.0032 8.83848C16.0335 7.98652 16.2811 7.15644 16.7225 6.42712C17.1639 5.6978 17.7845 5.09345 18.5252 4.67148C19.266 4.24952 20.1023 4.02396 20.9547 4.01623C21.8072 4.0085 22.6475 4.21886 23.3958 4.62733C24.144 5.03579 24.7754 5.62879 25.23 6.34999C25.3729 6.55424 25.563 6.721 25.784 6.83614C26.0051 6.95128 26.2507 7.0114 26.5 7.0114C26.7493 7.0114 26.9949 6.95128 27.216 6.83614C27.437 6.721 27.6271 6.55424 27.77 6.34999C28.2205 5.63526 28.8447 5.04631 29.5844 4.63815C30.3241 4.22998 31.1552 4.01591 32 4.01591C32.8448 4.01591 33.6759 4.22998 34.4156 4.63815C35.1553 5.04631 35.7795 5.63526 36.23 6.34999C36.3729 6.55424 36.563 6.721 36.784 6.83614C37.0051 6.95128 37.2507 7.0114 37.5 7.0114C37.7493 7.0114 37.9949 6.95128 38.216 6.83614C38.437 6.721 38.6271 6.55424 38.77 6.34999C39.2246 5.62879 39.856 5.03579 40.6042 4.62733C41.3525 4.21886 42.1928 4.0085 43.0453 4.01623C43.8977 4.02396 44.734 4.24952 45.4748 4.67148C46.2155 5.09345 46.8361 5.6978 47.2775 6.42712C47.7189 7.15644 47.9665 7.98652 47.9968 8.83848C48.027 9.69044 47.839 10.536 47.4505 11.2948C47.0619 12.0536 46.4858 12.7005 45.7769 13.174C45.068 13.6474 44.2498 13.9318 43.4 14C43.0232 14.0251 42.6697 14.1915 42.4102 14.4659C42.1507 14.7402 42.0042 15.1024 42 15.48V20H22V15.47C21.9956 15.0934 21.8488 14.7324 21.5891 14.4597C21.3293 14.187 20.9759 14.0227 20.6 14ZM22 22H42V24H22V22ZM22 34.83C21.414 34.6239 20.9065 34.2409 20.5474 33.734C20.1884 33.2271 19.9955 32.6212 19.9955 32C19.9955 31.3788 20.1884 30.7729 20.5474 30.266C20.9065 29.7591 21.414 29.3761 22 29.17V34.83ZM24 34V26H40V34C39.9992 35.1644 39.7443 36.3146 39.253 37.3702C38.7617 38.4259 38.0459 39.3616 37.1555 40.112C36.2651 40.8624 35.2217 41.4093 34.0981 41.7147C32.9744 42.0201 31.7977 42.0765 30.65 41.88C30.2039 41.802 29.7656 41.6849 29.34 41.53V41.53C27.781 40.9804 26.4306 39.9613 25.4743 38.6129C24.5181 37.2645 24.0031 35.653 24 34V34Z" fill="#CCC6F7"/>
<path d="M29 31V29C29 28.7348 28.8946 28.4804 28.7071 28.2929C28.5196 28.1054 28.2652 28 28 28C27.7348 28 27.4804 28.1054 27.2929 28.2929C27.1054 28.4804 27 28.7348 27 29V31C27 31.2652 27.1054 31.5196 27.2929 31.7071C27.4804 31.8946 27.7348 32 28 32C28.2652 32 28.5196 31.8946 28.7071 31.7071C28.8946 31.5196 29 31.2652 29 31ZM36 32C36.2652 32 36.5196 31.8946 36.7071 31.7071C36.8946 31.5196 37 31.2652 37 31V29C37 28.7348 36.8946 28.4804 36.7071 28.2929C36.5196 28.1054 36.2652 28 36 28C35.7348 28 35.4804 28.1054 35.2929 28.2929C35.1054 28.4804 35 28.7348 35 29V31C35 31.2652 35.1054 31.5196 35.2929 31.7071C35.4804 31.8946 35.7348 32 36 32ZM34 56C34 56.2652 34.1054 56.5196 34.2929 56.7071C34.4804 56.8946 34.7348 57 35 57H39C39.2652 57 39.5196 56.8946 39.7071 56.7071C39.8946 56.5196 40 56.2652 40 56C40 55.7348 39.8946 55.4804 39.7071 55.2929C39.5196 55.1054 39.2652 55 39 55H35C34.7348 55 34.4804 55.1054 34.2929 55.2929C34.1054 55.4804 34 55.7348 34 56ZM32 40C33.2982 40 34.5614 39.5789 35.6 38.8C35.7051 38.7212 35.7936 38.6225 35.8605 38.5095C35.9274 38.3965 35.9714 38.2714 35.9899 38.1414C36.0085 38.0114 36.0013 37.879 35.9687 37.7518C35.9361 37.6246 35.8788 37.5051 35.8 37.4C35.7212 37.2949 35.6225 37.2064 35.5095 37.1395C35.3965 37.0726 35.2714 37.0286 35.1414 37.0101C35.0114 36.9915 34.879 36.9987 34.7518 37.0313C34.6246 37.0639 34.5051 37.1212 34.4 37.2C33.7076 37.7193 32.8655 38 32 38C31.1345 38 30.2924 37.7193 29.6 37.2C29.4949 37.1212 29.3754 37.0639 29.2482 37.0313C29.121 36.9987 28.9886 36.9915 28.8586 37.0101C28.7286 37.0286 28.6035 37.0726 28.4905 37.1395C28.3775 37.2064 28.2788 37.2949 28.2 37.4C28.1212 37.5051 28.0639 37.6246 28.0313 37.7518C27.9987 37.879 27.9915 38.0114 28.01 38.1414C28.0476 38.404 28.1878 38.6409 28.4 38.8C29.4386 39.5789 30.7018 40 32 40ZM29.29 55.29C29.199 55.3851 29.1276 55.4972 29.08 55.62C29.0288 55.7402 29.0016 55.8693 29 56C29.0013 56.2313 29.0828 56.4549 29.2305 56.6329C29.3782 56.8109 29.5831 56.9321 29.8101 56.976C30.0372 57.0199 30.2725 56.9838 30.4759 56.8737C30.6793 56.7636 30.8383 56.5865 30.9257 56.3723C31.0132 56.1582 31.0237 55.9204 30.9555 55.6994C30.8874 55.4784 30.7447 55.2879 30.5518 55.1603C30.3589 55.0326 30.1278 54.9758 29.8977 54.9995C29.6676 55.0231 29.4529 55.1258 29.29 55.29Z" fill="#CCC6F7"/>
</svg>
