<svg xmlns="http://www.w3.org/2000/svg" data-name="Layer 1" viewBox="0 0 512 512"><path fill="#f66" d="M256.39,112.41992V221.27a10.0037,10.0037,0,0,1-10,10H127.87a10.00362,10.00362,0,0,1-10-10V112.41992a9.99729,9.99729,0,0,1,10-10H246.39A9.99737,9.99737,0,0,1,256.39,112.41992Z"/><rect width="137.638" height="27.345" x="146.127" y="231.272" fill="#4a4f60" rx="13.673"/><path fill="#3b3f4d" d="M270.09277,231.272h-30a13.67261,13.67261,0,1,1,0,27.34522h30a13.67261,13.67261,0,1,0,0-27.34522Z"/><path fill="#4a4f60" d="M224.20959,386.98535a48.81445,48.81445,0,0,1-97.6289,0V372.35582l97.6289-3.01547Z"/><path fill="#3b3f4d" d="M209.20959,369.80371v17.18164a48.82529,48.82529,0,0,1-41.31445,48.24024,48.84668,48.84668,0,0,0,56.31445-48.24024v-17.645Z"/><path fill="#fff" d="M156.58846,386.9853a18.80666,18.80666,0,1,0,37.61331,0V373.86959H156.58846Z"/><path fill="#ffe966" d="M378.77612,378.90356,92.46423,382.6272c-16.75818-28.78491,7.80249-87.47071,49.4032-111.51221,21.85608-12.63074,44.17-13.24548,56.72009-12.50195h76.64454c-15.99891,24.35766-14.33155,55.44177,3.10315,75.40344,14.06591,16.10461,36.72985,23.07825,56.98339,18.61816,48.55384-10.69214,45.522-66.83728,37.49134-104.76477-.605-2.857-10.89991-35.73887-15.2079-48.34361l33.88356,9.47728q8.09711,27.07782,17.58691,55.45007,10.18176,30.34845,20.81055,58.57154Q404.32959,350.9643,378.77612,378.90356Z"/><path fill="#4a4f60" d="M482.52,353.58071A48.81882,48.81882,0,1,1,400.973,402.97786"/><path fill="#3b3f4d" d="M482.52,353.58069l-10.06958,6.09973a48.79774,48.79774,0,0,1-32.7041,75.834A48.80784,48.80784,0,0,0,482.52,353.58069Z"/><path fill="#fff" d="M456.22827,370.77979a18.80946,18.80946,0,1,1-27.82947,16.78735,19.977,19.977,0,0,1,11.96863-17.47986C448.02417,366.94385,455.0542,370.21082,456.22827,370.77979Z"/><path fill="#ffe236" d="M92.46767,382.62916c11.48058-53.16468,61.10558-83.15679,101.46537-72.81627,29.24327,7.49238,52.31948,35.82548,57.703,70.76537Z"/><path fill="#ffe236" d="M424.17477,322.53308h3.46059a59.98073,59.98073,0,0,1,59.98073,59.98073v.00009a0,0,0,0,1,0,0H364.194a0,0,0,0,1,0,0v-.00007a59.98075,59.98075,0,0,1,59.98075-59.98075Z" transform="rotate(-30.755 425.905 352.523)"/><path fill="#ff4e4e" d="M256.39,112.41992V200.49a69.99041,69.99041,0,0,1-62.28-98.07007h52.28A9.99737,9.99737,0,0,1,256.39,112.41992Z"/><ellipse cx="258.221" cy="130.507" fill="#63ea86" rx="55" ry="55.007"/><path fill="#ffe236" d="M375.71661,164.91151h26.36525a4,4,0,0,1,4,4v36.092a4,4,0,0,1-4,4H375.71661a22.046,22.046,0,0,1-22.046-22.046v0a22.046,22.046,0,0,1,22.046-22.046Z"/><path fill="#ffdf1f" d="M402.08179,164.9115h-15a4,4,0,0,1,4,4v36.09192a3.99988,3.99988,0,0,1-4,4h15a3.99988,3.99988,0,0,0,4-4V168.9115A4,4,0,0,0,402.08179,164.9115Z"/><path fill="#272a33" d="M30.97058,184.08059H87.87a7.5,7.5,0,1,0,0-15H30.97058a7.5,7.5,0,0,0,0,15Zm-15,30H87.87a7.5,7.5,0,1,0,0-15H15.97058a7.5,7.5,0,0,0,0,15Zm30-60H87.87a7.5,7.5,0,0,0,0-15H45.97058a7.5,7.5,0,0,0,0,15Zm458.5293,274.919H485.0271a55.8801,55.8801,0,0,0,17.68469-32.19824,56.60813,56.60813,0,0,0-8.88843-41.06739l4.28492-2.5498a7.49934,7.49934,0,0,0,2.61035-10.28028A67.59972,67.59972,0,0,0,432.694,310.6509c-6.38977-15.2146-12.967-36.88818-19.33765-57.89453-3.71631-12.25586-7.52978-24.82715-11.3457-36.25341h4.07129a7.49974,7.49974,0,0,0,7.5-7.5v-44.0918a7.49974,7.49974,0,0,0-7.5-7.5H375.71667a29.59676,29.59676,0,0,0-28.57861,22.0459H318.44128a7.5,7.5,0,0,0,0,15h28.69678a29.49025,29.49025,0,0,0,5.96021,11.48193,7.53008,7.53008,0,0,0,.31176,1.2959c4.17872,12.227,11.53418,39.69433,12.0625,42.18848,8.20411,38.74511,9.35254,86.831-31.76757,95.88671a51.99039,51.99039,0,0,1-49.72168-16.22753c-15.47193-17.71473-16.49915-44.979-2.50513-66.31653a21.15387,21.15387,0,0,0-11.3855-38.99451h-6.40307a17.47135,17.47135,0,0,0,.2-2.50195V192.7449a62.49948,62.49948,0,1,0-57.00794-97.82544H127.87a17.52,17.52,0,0,0-17.5,17.5v108.8501a17.52,17.52,0,0,0,17.5,17.5h11.6809a21.07749,21.07749,0,0,0,6.14807,21.92407c-2.59021,1.20483-5.12475,2.50671-7.58386,3.928-25.6997,14.85156-47.44385,43.77929-55.39551,73.69726-4.9519,18.63086-3.85156,35.55542,3.07447,47.73072.01074.02075.02221.04077.03308.06128.05408.09472.10095.19506.15564.28906.02539.04358.05762.0813.08374.12427q.17762.29187.38159.56579c.04.05408.076.1117.11755.16467a7.54556,7.54556,0,0,0,.56922.64234c.05627.05713.11572.10986.17383.16492q.24426.23235.50952.44287c.061.04821.12121.0968.18359.14294a7.47089,7.47089,0,0,0,.70374.46716l.02661.01685a7.43016,7.43016,0,0,0,.816.40137c.05749.02429.1167.04382.1748.06652q.32446.12745.66443.226c.08569.02478.17151.04773.25818.06946.08032.02026.15747.04687.239.06445.14112.03052.28174.0459.42249.06811.079.01233.15686.0282.23645.03809a7.49443,7.49443,0,0,0,.9314.0647c.01782,0,.03479-.0044.05261-.00452l.0343-.00037,26.58948-.34582a56.19551,56.19551,0,0,0,18.79931,39.21985H7.49988a7.5,7.5,0,0,0,0,15h497a7.5,7.5,0,1,0,0-15ZM442.6405,324.94192a52.59339,52.59339,0,0,1,40.89258,19.46l-3.59534,2.13941a7.46892,7.46892,0,0,0-2.339,1.392L391.2782,399.29934a52.56063,52.56063,0,0,1,21.63867-65.21875l2.97363-1.76953A52.15012,52.15012,0,0,1,442.6405,324.94192Zm15.71,64.25488a11.305,11.305,0,0,1-22.11682.80616l18.60047-11.06824A11.31623,11.31623,0,0,1,458.35046,389.1968ZM361.17078,186.95706a14.56253,14.56253,0,0,1,14.54589-14.5459h22.86524V201.503H375.71667A14.56254,14.56254,0,0,1,361.17078,186.95706Zm-91.07813,51.81445a6.17088,6.17088,0,0,1,.07715,12.34131H198.80652a122.16612,122.16612,0,0,0-13.99024.0039h-25.0166a6.17261,6.17261,0,1,1,0-12.34521Zm-11.87109-155.772a47.50708,47.50708,0,1,1-47.50049,47.50732A47.55747,47.55747,0,0,1,258.22156,82.99954ZM127.87,223.76956a2.50295,2.50295,0,0,1-2.5-2.5V112.41946a2.50294,2.50294,0,0,1,2.5-2.5h71.35058A62.47577,62.47577,0,0,0,248.89,192.31423v28.95533a2.50295,2.50295,0,0,1-2.5,2.5ZM97.21619,342.17239c6.98-26.2627,25.98-51.60547,48.40429-64.56445a89.853,89.853,0,0,1,39.61231-11.49122h77.46765c-10.65857,24.74024-7.14539,53.21875,9.986,72.833a67.17493,67.17493,0,0,0,64.24512,21.00879c41.45312-9.1289,56.80078-49.4873,43.21582-113.64111-.51074-2.41358-4.42859-17.14893-8.22449-30.06641a29.63523,29.63523,0,0,0,3.79382.252h10.45606c4.27515,12.39917,8.61475,26.70971,12.8291,40.60595,6.22839,20.53919,12.65234,41.70618,19.08838,57.48047a68.28507,68.28507,0,0,0-9.86963,4.83106L405.247,321.19a67.037,67.037,0,0,0-30.89844,41.38574,68.47871,68.47871,0,0,0-1.62915,8.90564l-114.87769,1.49377c-7.57568-34.81018-31.881-62.69848-62.04736-70.42871-20.54541-5.26367-43.88623-1.13672-64.04053,11.32129a102.69667,102.69667,0,0,0-36.74462,39.88013A78.77612,78.77612,0,0,1,97.21619,342.17239Zm5.07641,32.82544c6.58631-20.24487,19.85-37.55445,37.34839-48.37134,16.70459-10.32519,35.81543-13.80664,52.43018-9.54883,23.88611,6.11988,43.37549,28.14954,50.41821,56.09705Zm84.23352,13.90564a11.29848,11.29848,0,0,1-22.21814.28894ZM175.3949,428.29934a41.36138,41.36138,0,0,1-41.22425-38.715l15.03211-.19544a26.301,26.301,0,0,0,52.43628-.682l15.03161-.19543A41.35737,41.35737,0,0,1,175.3949,428.29934Zm37.44421.7002a56.17856,56.17856,0,0,0,18.83643-40.68335l19.506-.25366a7.48551,7.48551,0,0,0,1.02295-.01319l120.44482-1.56653a67.26509,67.26509,0,0,0,9.11426,27.2052,7.49976,7.49976,0,0,0,10.28027,2.61036l5.17578-3.07984a56.31292,56.31292,0,0,0,12.14966,15.781Zm258.22522-7.9834a41.31386,41.31386,0,0,1-60.92444-15.48584l12.97351-7.72a26.29593,26.29593,0,1,0,44.84009-26.6825l12.964-7.71423a41.30409,41.30409,0,0,1-9.85315,57.60254ZM258.22156,138.00686h21.62793a7.5,7.5,0,1,0,0-15H265.72156V102.15139a7.5,7.5,0,1,0-15,0v28.35547A7.50006,7.50006,0,0,0,258.22156,138.00686Z"/></svg>