<svg width="64" height="64" viewBox="0 0 64 64" fill="none" xmlns="http://www.w3.org/2000/svg">
<path d="M52.229 16.398C53.543 16.337 54.558 15.222 54.497 13.908C54.436 12.594 53.321 11.579 52.007 11.64L51.115 11.681L51.074 10.789C51.013 9.47498 49.898 8.45998 48.584 8.52098C47.27 8.58198 46.255 9.69698 46.316 11.011L46.579 16.661L52.229 16.398ZM53.33 23.412L53.298 24.1L52.61 24.068C51.597 24.021 50.738 24.804 50.691 25.817C50.644 26.83 51.427 27.689 52.44 27.736L56.795 27.938L56.997 23.583C57.044 22.57 56.261 21.711 55.248 21.664C54.237 21.616 53.377 22.399 53.33 23.412Z" fill="#E81E68"/>
<path d="M44.5 5.43799C45.1904 5.43799 45.75 4.87834 45.75 4.18799C45.75 3.49763 45.1904 2.93799 44.5 2.93799C43.8096 2.93799 43.25 3.49763 43.25 4.18799C43.25 4.87834 43.8096 5.43799 44.5 5.43799Z" fill="#E81E68"/>
<path d="M57 9.16101C57.6904 9.16101 58.25 8.60137 58.25 7.91101C58.25 7.22065 57.6904 6.66101 57 6.66101C56.3096 6.66101 55.75 7.22065 55.75 7.91101C55.75 8.60137 56.3096 9.16101 57 9.16101Z" fill="#E81E68"/>
<path d="M45.75 22.911C46.4404 22.911 47 22.3514 47 21.661C47 20.9707 46.4404 20.411 45.75 20.411C45.0596 20.411 44.5 20.9707 44.5 21.661C44.5 22.3514 45.0596 22.911 45.75 22.911Z" fill="#E81E68"/>
<path d="M11.771 16.398L17.421 16.661L17.684 11.011C17.745 9.69698 16.73 8.58298 15.416 8.52098C14.102 8.45998 12.988 9.47498 12.926 10.789L12.885 11.681L11.993 11.64C10.679 11.579 9.56501 12.594 9.50301 13.908C9.44201 15.223 10.457 16.337 11.771 16.398ZM7.00201 23.582L7.20401 27.937L11.559 27.735C12.572 27.688 13.355 26.829 13.308 25.816C13.261 24.803 12.402 24.02 11.389 24.067L10.701 24.099L10.669 23.411C10.622 22.398 9.76301 21.615 8.75001 21.662C7.73801 21.71 6.95501 22.569 7.00201 23.582Z" fill="#E81E68"/>
<path d="M19.5 5.43799C20.1904 5.43799 20.75 4.87834 20.75 4.18799C20.75 3.49763 20.1904 2.93799 19.5 2.93799C18.8096 2.93799 18.25 3.49763 18.25 4.18799C18.25 4.87834 18.8096 5.43799 19.5 5.43799Z" fill="#E81E68"/>
<path d="M7 9.16101C7.69036 9.16101 8.25 8.60137 8.25 7.91101C8.25 7.22065 7.69036 6.66101 7 6.66101C6.30964 6.66101 5.75 7.22065 5.75 7.91101C5.75 8.60137 6.30964 9.16101 7 9.16101Z" fill="#E81E68"/>
<path d="M18.25 22.911C18.9404 22.911 19.5 22.3514 19.5 21.661C19.5 20.9707 18.9404 20.411 18.25 20.411C17.5596 20.411 17 20.9707 17 21.661C17 22.3514 17.5596 22.911 18.25 22.911Z" fill="#E81E68"/>
<path d="M32 27.313C34.412 27.313 36.375 25.35 36.375 22.938C36.375 20.526 34.412 18.563 32 18.563C29.588 18.563 27.625 20.526 27.625 22.938C27.625 25.35 29.588 27.313 32 27.313ZM32 19.813C33.723 19.813 35.125 21.215 35.125 22.938C35.125 24.661 33.723 26.063 32 26.063C30.277 26.063 28.875 24.661 28.875 22.938C28.875 21.215 30.277 19.813 32 19.813ZM3.89905 53.563C4.21905 57.752 7.73005 61.063 12 61.063H52C56.27 61.063 59.7811 57.752 60.1011 53.563H3.89905Z" fill="#42c7ae"/>
<path d="M6.38306 52.313H11.3861C11.6041 45.224 15.5081 38.664 21.6871 35.081C21.9861 34.908 22.3681 35.01 22.5411 35.308C22.7141 35.607 22.6121 35.989 22.3141 36.162C16.5191 39.521 12.8531 45.667 12.6361 52.312H57.6181C57.2851 38.47 45.9221 27.312 32.0011 27.312C18.0801 27.312 6.71606 38.47 6.38306 52.313ZM32.0001 32.313C34.6731 32.313 37.2751 32.819 39.7351 33.818C40.0551 33.948 40.2091 34.312 40.0791 34.632C39.9801 34.875 39.7471 35.022 39.5001 35.022C39.4221 35.022 39.3421 35.007 39.2651 34.976C36.9551 34.038 34.5111 33.563 32.0001 33.563C31.6551 33.563 31.3751 33.283 31.3751 32.938C31.3751 32.593 31.6551 32.313 32.0001 32.313Z" fill="#42c7ae"/>
</svg>
