<svg xmlns="http://www.w3.org/2000/svg" width="96" height="96" fill="none" viewBox="0 0 96 96"><path fill="#ccc6f7" d="M37.4776 90.7492C36.7887 90.3035 36.584 89.6743 36.5946 88.8616C36.633 85.978 36.6074 83.0922 36.6117 80.2086C36.6138 78.2719 37.3923 77.3484 39.3994 76.973C39.2543 76.6893 39.1306 76.4185 38.9834 76.1625C35.7223 70.5339 32.4569 64.9095 29.1957 59.283C28.2167 57.5959 27.4084 55.8426 27.0842 53.8975C26.7173 51.707 27.5107 49.781 29.2064 48.7786C30.9937 47.7228 32.8834 47.8977 34.6878 49.3438C35.6348 50.1031 36.5264 50.9306 37.3731 51.6665C37.3731 51.5961 37.371 51.2698 37.3731 50.9434C37.4051 44.2611 37.4265 37.5789 37.4712 30.8966C37.4862 28.8341 38.8597 27.0531 40.7921 26.4965C42.7352 25.9355 44.8446 26.6202 45.8833 28.3542C46.3589 29.1476 46.6447 30.1501 46.7002 31.0779C46.8196 33.0956 46.7364 35.1261 46.7364 37.2333C48.4107 36.6361 49.9784 36.6852 51.4032 37.7388C52.7853 38.7626 53.4294 40.1682 53.3995 41.9896C54.884 41.4863 56.2874 41.4735 57.6311 42.237C58.9578 42.9942 59.683 44.1694 60.0136 45.6838C60.5553 45.6113 61.0779 45.5046 61.6047 45.479C64.4947 45.3318 66.5935 47.2941 66.6447 50.1799C66.6916 52.9206 66.6511 55.6656 66.7918 58.4021C66.9966 62.3564 66.2479 66.1849 65.5164 70.0262C65.0685 72.3767 64.6419 74.7314 64.1961 77.1372C65.7531 77.8006 66.1434 79.0504 66.1072 80.616C66.0453 83.3268 66.0624 86.042 66.1072 88.755C66.12 89.5911 65.9238 90.2544 65.2434 90.7514C64.9 90.7514 64.5587 90.7514 64.2153 90.7514C63.5285 90.3056 63.3195 89.6785 63.3323 88.8659C63.3707 86.1572 63.3472 83.4484 63.3472 80.7397C63.3472 80.4389 63.3472 80.1361 63.3472 79.8311C55.2871 79.8311 47.3443 79.8311 39.329 79.8311C39.329 80.1851 39.329 80.4944 39.329 80.8015C39.3354 83.4527 39.3183 86.106 39.3674 88.7571C39.3823 89.5911 39.1861 90.2544 38.5078 90.7514C38.1623 90.7492 37.821 90.7492 37.4776 90.7492ZM61.4298 77.0007C61.9609 74.1192 62.5197 71.2697 63.006 68.4074C63.392 66.1338 63.8975 63.8516 63.9786 61.5609C64.1108 57.7686 63.9487 53.9678 63.8975 50.1692C63.8805 48.9257 63.1404 48.207 61.9161 48.1942C60.7494 48.1814 60.0903 48.8724 60.0733 50.1692C60.0477 52.2829 60.0434 54.3966 60.0242 56.5081C60.0221 56.8216 60.0264 57.1437 59.9538 57.4444C59.7811 58.1696 59.2969 58.5855 58.5461 58.5749C57.7719 58.5642 57.3603 58.0822 57.2366 57.3506C57.1939 57.101 57.2174 56.8387 57.2195 56.5806C57.2366 53.3259 57.26 50.069 57.2664 46.8142C57.2664 46.3919 57.2472 45.944 57.115 45.5515C56.8377 44.7325 55.8929 44.2398 55.0461 44.3934C54.0607 44.5725 53.4337 45.3191 53.4294 46.4047C53.4166 49.7746 53.4251 53.1446 53.423 56.5145C53.423 56.7704 53.4379 57.0307 53.4123 57.2845C53.327 58.1056 52.6253 58.7391 51.8639 58.705C51.1365 58.6708 50.6417 58.1163 50.5863 57.2567C50.5692 57.0008 50.582 56.7427 50.5841 56.4868C50.6055 51.6025 50.6332 46.7203 50.6481 41.8361C50.6524 40.5372 49.8782 39.6285 48.7861 39.5859C47.6685 39.5432 46.8282 40.4689 46.7834 41.7955C46.7748 42.0238 46.7791 42.252 46.7791 42.4802C46.7663 47.2216 46.7535 51.9608 46.7386 56.7022C46.7386 56.9581 46.7578 57.2205 46.7215 57.4722C46.6191 58.1888 46.0177 58.7028 45.3032 58.7092C44.5716 58.7156 44.0192 58.2315 43.9232 57.4636C43.8848 57.1544 43.9019 56.8366 43.9019 56.523C43.9317 48.1835 43.9637 39.8461 43.9936 31.5066C43.9936 31.2506 44.0106 30.9904 43.9808 30.7366C43.8699 29.7683 42.9975 29.0218 42.0335 29.0538C41.0971 29.0858 40.3037 29.8365 40.2205 30.7814C40.1949 31.0651 40.2098 31.353 40.2077 31.6367C40.1693 40.0892 40.1245 48.5418 40.0968 56.9965C40.0947 57.7964 39.8793 58.4448 39.0496 58.6388C38.2284 58.8308 37.7059 58.3552 37.3411 57.6641C37.0084 57.0328 36.6906 56.3929 36.3259 55.7829C35.3469 54.1406 34.3914 52.4706 32.7875 51.3274C32.1199 50.8517 31.4096 50.6598 30.6311 51.1141C29.8825 51.5513 29.5881 52.2701 29.7972 53.0145C30.2173 54.5096 30.5906 56.073 31.3414 57.4082C34.9225 63.7727 38.6294 70.0668 42.2702 76.3971C42.5475 76.877 42.8354 77.0605 43.4006 77.0583C49.1402 77.0349 54.8797 77.0434 60.6214 77.0413C60.871 77.037 61.1248 77.0157 61.4298 77.0007Z"/><path fill="#e81e68" d="M52.3881 3.00213C53.9323 3.47136 55.5725 3.74224 57.0036 4.43969C65.6908 8.67557 67.3417 19.9734 60.2947 26.7175C57.6136 29.2834 54.8622 31.7767 52.162 34.3255C51.8165 34.6497 51.5392 34.7051 51.1105 34.5345C50.6136 34.3383 50.0803 34.2359 49.5471 34.0887C49.3146 33.4126 49.5642 32.9434 50.0846 32.4678C52.8637 29.9211 55.6386 27.3702 58.3623 24.7638C61.5125 21.7501 62.6536 18.0474 61.5467 13.835C60.4418 9.63323 57.5945 7.03326 53.3842 6.04787C49.7583 5.19899 46.4801 6.082 43.622 8.44949C42.1802 9.6439 41.9648 9.67802 40.5955 8.47508C36.11 4.53993 29.0523 4.91532 25.0511 9.29837C21.0306 13.7049 21.3249 20.5173 25.7549 24.7254C28.4253 27.2636 31.1255 29.7697 33.8513 32.2459C34.472 32.809 34.809 33.3614 34.7258 34.2189C34.6511 34.9974 34.7109 35.7908 34.7109 36.6439C34.5253 36.565 34.4378 36.5522 34.3845 36.5032C30.6733 33.033 26.8107 29.7057 23.2957 26.0436C19.4608 22.0465 18.4584 17.1409 20.3481 11.9197C22.1994 6.80504 26.0898 3.99392 31.4284 3.14077C31.5627 3.11944 31.6907 3.04905 31.8208 3.00213C32.7913 3.00213 33.7639 3.00213 34.7343 3.00213C35.7794 3.26874 36.8757 3.41804 37.8611 3.82755C39.3456 4.44395 40.7554 5.24378 42.1375 5.93483C43.2743 5.3163 44.4069 4.57619 45.6354 4.06857C46.8064 3.58654 48.0776 3.34766 49.304 3C50.3299 3.00213 51.3601 3.00213 52.3881 3.00213Z"/><path fill="#e81e68" d="M53.0699 13.6113C51.9917 13.9151 50.8742 14.1251 49.8449 14.5507 48.7649 14.997 47.7711 15.6476 46.7699 16.1913 45.5549 15.582 44.3155 14.8807 43.0105 14.3388 42.1442 13.9788 41.1805 13.8476 40.2617 13.6132 44.533 13.6113 48.8024 13.6113 53.0699 13.6113zM18.1143 23.2633C18.5899 24.1378 19.0101 24.9099 19.3748 25.5817 18.5323 26.1256 17.6983 26.6418 16.8879 27.192 16.1328 27.7018 15.5207 27.4885 14.8894 26.9425 13.006 25.313 10.421 25.1829 8.49711 26.5863 5.95473 28.4398 5.70731 32.0187 8.03428 34.2817 10.1821 36.3719 12.4003 38.3875 14.5886 40.435 15.0472 40.8638 15.5079 41.2882 16.0816 41.8214 19.1423 38.5069 22.9921 35.9965 25.6348 32.1147 26.2213 32.6629 26.8953 33.2942 27.6994 34.045 27.0531 34.8512 26.5135 35.6979 25.8075 36.3741 23.0902 38.9826 20.3218 41.5399 17.5661 44.11 16.5359 45.0719 15.5676 45.089 14.546 44.142 11.7434 41.5399 8.93222 38.9442 6.16801 36.3015 3.20119 33.4648 2.86633 29.0839 5.3106 25.8888 7.71648 22.745 12.0206 21.9388 15.5143 24.0098 15.9259 24.2551 16.1968 24.2359 16.585 23.997 17.0564 23.7027 17.5896 23.5086 18.1143 23.2633zM64.791 25.602C65.1579 24.9195 65.5759 24.1474 66.0494 23.2665 66.5293 23.4798 67.0497 23.6334 67.4827 23.9213 67.9775 24.2498 68.3359 24.2135 68.8563 23.9277 71.5224 22.4582 74.229 22.4795 76.8268 24.0621 79.3841 25.6191 80.5594 28.0079 80.4719 30.9747 80.4101 33.0927 79.5377 34.8971 77.9935 36.3496 75.2293 38.9517 72.4544 41.5431 69.6753 44.1282 68.6515 45.0815 67.6789 45.0751 66.6552 44.1196 63.8995 41.5516 61.1396 38.9858 58.4031 36.3944 56.2958 34.4001 56.3449 33.8306 58.7657 31.9814 59.2861 33.8115 60.7706 34.8438 62.0396 36.0467 64.0467 37.9492 66.0772 39.8304 68.1396 41.7564 68.3316 41.5986 68.5086 41.4663 68.6686 41.317 71.1705 38.9794 73.7043 36.6716 76.1635 34.2871 78.9277 31.6082 77.9999 27.1825 74.438 25.9262 72.5952 25.2757 70.8974 25.6148 69.3916 26.8626 68.3721 27.7072 67.9925 27.6794 66.9303 26.8796 66.2798 26.3955 65.5311 26.0371 64.791 25.602z"/><path stroke="#3805A4" stroke-width="3.868" d="M50.7461 83.8965V83.893C50.7461 83.8939 50.7461 83.8949 50.7461 83.8958C50.7461 83.896 50.7461 83.8962 50.7461 83.8965ZM50.7461 83.8965C50.7461 83.8972 50.7461 83.8979 50.7461 83.8986V83.8965ZM50.7461 83.8965C50.7461 83.8972 50.7461 83.8979 50.7461 83.8986C50.7471 84.0821 50.8227 84.2141 50.8985 84.2914C50.9743 84.3689 51.1212 84.4625 51.3385 84.4631C51.3391 84.4631 51.3398 84.4631 51.3404 84.4631C51.3406 84.4631 51.3407 84.4631 51.3409 84.4631C51.5421 84.463 51.6927 84.3767 51.7795 84.2882C51.8664 84.1997 51.9343 84.0652 51.9348 83.8999C51.9348 83.8995 51.9348 83.899 51.9348 83.8986C51.9348 83.8979 51.9348 83.8972 51.9348 83.8964C51.9343 83.733 51.8675 83.5975 51.7793 83.507C51.691 83.4164 51.5419 83.3321 51.3476 83.3299C51.3466 83.3299 51.3456 83.3299 51.3446 83.3299C51.3437 83.3299 51.3427 83.3298 51.3418 83.3298H51.343L50.7461 83.8965Z"/></svg>