<svg width="1024" height="1024" viewBox="0 0 1024 1024" fill="none" xmlns="http://www.w3.org/2000/svg">
<g clip-path="url(#clip0_24_24)">
<path d="M259.664 1020.38C220.057 1019.93 180.822 1012.67 143.681 998.902C116.56 988.877 92.0216 972.917 71.8607 952.189C51.0772 932.069 35.0939 907.524 25.098 880.379C11.3418 843.24 4.08779 804.008 3.65427 764.406C0.612392 698.569 0 678.822 0 512C0 345.178 0.672627 325.501 3.62416 259.614C4.11028 220.027 11.3732 180.816 25.098 143.681C35.1426 116.555 51.1032 92.0073 71.8205 71.8205C91.9565 51.0557 116.506 35.0873 143.651 25.098C180.791 11.3304 220.027 4.06617 259.634 3.62416C325.491 0.612392 345.269 0 512 0C678.731 0 698.498 0.672627 764.386 3.62416C803.983 4.10685 843.205 11.3699 880.349 25.098C907.482 35.1005 932.025 51.0634 952.169 71.8105C972.923 91.9616 988.892 116.511 998.902 143.651C1012.67 180.791 1019.94 220.026 1020.39 259.634C1023.4 325.522 1024.01 345.249 1024.01 512.02C1024.01 678.791 1023.4 698.519 1020.39 764.406C1019.91 804.008 1012.64 843.234 998.902 880.379C988.509 907.316 972.591 931.778 952.173 952.191C931.755 972.604 907.288 988.516 880.349 998.902C843.209 1012.67 803.974 1019.94 764.366 1020.39C698.539 1023.4 678.751 1024.01 511.98 1024.01C345.208 1024.01 325.481 1023.43 259.654 1020.39" fill="url(#paint0_radial_24_24)"/>
<path d="M259.664 1020.38C220.057 1019.93 180.822 1012.67 143.681 998.902C116.56 988.877 92.0216 972.917 71.8607 952.189C51.0772 932.069 35.0939 907.524 25.098 880.379C11.3418 843.24 4.08779 804.008 3.65427 764.406C0.612392 698.569 0 678.822 0 512C0 345.178 0.672627 325.501 3.62416 259.614C4.11028 220.027 11.3732 180.816 25.098 143.681C35.1426 116.555 51.1032 92.0073 71.8205 71.8205C91.9565 51.0557 116.506 35.0873 143.651 25.098C180.791 11.3304 220.027 4.06617 259.634 3.62416C325.491 0.612392 345.269 0 512 0C678.731 0 698.498 0.672627 764.386 3.62416C803.983 4.10685 843.205 11.3699 880.349 25.098C907.482 35.1005 932.025 51.0634 952.169 71.8105C972.923 91.9616 988.892 116.511 998.902 143.651C1012.67 180.791 1019.94 220.026 1020.39 259.634C1023.4 325.522 1024.01 345.249 1024.01 512.02C1024.01 678.791 1023.4 698.519 1020.39 764.406C1019.91 804.008 1012.64 843.234 998.902 880.379C988.509 907.316 972.591 931.778 952.173 952.191C931.755 972.604 907.288 988.516 880.349 998.902C843.209 1012.67 803.974 1019.94 764.366 1020.39C698.539 1023.4 678.751 1024.01 511.98 1024.01C345.208 1024.01 325.481 1023.43 259.654 1020.39" fill="url(#paint1_radial_24_24)"/>
<path fill-rule="evenodd" clip-rule="evenodd" d="M512 0C794.77 0 1024 229.23 1024 512C1024 794.77 794.77 1024 512 1024C229.23 1024 0 794.77 0 512C0 229.23 229.23 0 512 0Z" fill="white" fill-opacity="0.24"/>
<path d="M639.081 612.88C639.081 612.88 744.996 578.639 808.933 571.01C872.874 563.196 902.1 561.149 902.1 561.149C902.989 560.95 903.908 560.95 904.797 561.149C905.686 561.348 906.525 561.741 907.26 562.303C907.995 562.865 908.609 563.583 909.063 564.41C909.516 565.238 909.799 566.156 909.893 567.106C911.134 573.989 901.211 575.478 901.211 575.478C705.676 637.071 567.701 699.033 551.405 706.292C535.996 712.805 337.271 804.54 337.271 804.54C337.271 804.54 312.828 813.843 292.992 810.121C272.977 806.402 269.079 796.726 267.485 787.234C267.485 787.234 261.641 765.834 290.511 755.602C317.075 746.114 388.281 712.619 388.281 712.619L575.497 634.653L639.081 612.872V612.88Z" fill="#FCC607"/>
<path d="M853.16 327.341C852.565 324.728 851.476 322.267 849.959 320.107C848.442 317.947 846.527 316.131 844.33 314.767C842.132 313.403 839.697 312.52 837.168 312.17C834.64 311.82 832.071 312.011 829.614 312.73C822.778 314.732 660.8 362.768 619.213 455.838C577.627 548.909 634.215 637.576 636.683 641.179C639 644.54 642.252 647.059 645.988 648.384C656.536 651.605 667.479 653.156 678.46 652.988C711.881 652.988 766.38 639.978 818.41 570.125C886.771 478.656 854.68 333.546 853.16 327.341Z" fill="url(#paint2_linear_24_24)"/>
<path d="M488.925 439.173C395.324 347.666 165.595 363.779 155.828 364.575C153.115 364.774 150.471 365.502 148.051 366.717C145.631 367.933 143.485 369.61 141.74 371.65C139.994 373.69 138.685 376.052 137.89 378.595C137.094 381.138 136.828 383.812 137.108 386.457C138.125 394.414 160.101 581.604 287.48 659.583C331.287 688.454 382.598 704.53 435.41 705.933C472.732 706.958 509.402 696.217 539.999 675.298C543.3 672.76 545.716 669.286 546.917 665.352C548.952 659.981 584.358 532.469 488.925 439.173Z" fill="url(#paint3_linear_24_24)"/>
<path d="M271.216 674.29C351.493 728.537 451.62 753.629 532.78 701.772C546.233 717.783 559.024 734.033 570.713 751L606 722.323C590.697 700.255 574.201 679.188 556.598 659.234C564.69 614.907 562.908 569.128 551.402 525.697C539.895 482.265 518.995 442.433 490.436 409.507C388.986 299.579 139.993 318.936 129.407 319.892C126.466 320.131 123.6 321.006 120.977 322.466C118.355 323.926 116.029 325.941 114.137 328.391C112.245 330.842 110.826 333.679 109.964 336.734C109.102 339.79 108.814 343.001 109.117 346.179C109.337 355.738 133.156 580.612 271.216 674.29ZM458.236 443.202C478.711 466.124 494.498 493.464 504.568 523.44C514.638 553.416 518.765 585.355 516.68 617.175C442.603 543.904 361.237 479.784 274.083 425.996L253.131 468.056C342.567 523.347 425.694 589.84 500.801 666.164C470.146 682.176 397.366 703.444 294.373 633.664C199.76 569.38 166.017 425.996 155.872 366.253C218.727 364.341 387.663 366.731 458.236 443.202Z" fill="#086C18" fill-opacity="0.63"/>
<path d="M614.642 751C619.345 735.94 625.092 720.88 631.362 705.82C697.72 716.03 779.492 689.739 850.03 602.187C944.08 485.536 899.929 300.478 897.839 292.565C897.019 289.232 895.521 286.094 893.434 283.339C891.347 280.584 888.713 278.268 885.69 276.529C882.666 274.79 879.316 273.664 875.837 273.217C872.359 272.771 868.824 273.014 865.443 273.931C856.038 276.484 633.191 337.745 575.977 456.437C560.299 491.059 553.238 528.816 555.372 566.617C557.507 604.418 568.775 641.187 588.256 673.913C579.22 694.166 571.284 714.87 564.482 735.94L614.642 751ZM623.263 478.134C657.226 407.684 781.843 354.591 852.12 331.619C859.957 382.669 868.317 497.023 809.013 570.791C749.709 644.559 687.009 657.832 654.091 656.811C696.249 578.354 747.343 504.8 806.401 437.549L767.213 403.855C709.975 468.767 659.969 539.444 618.038 614.695C601.191 570.296 603.07 521.179 623.263 478.134Z" fill="#086C18" fill-opacity="0.63"/>
<path d="M394.5 292.25C394.5 297.25 393.417 301 391.25 303.5C389.25 306 385.917 307.25 381.25 307.25C380.917 310.75 380.167 316.833 379 325.5C377.333 337.167 376.417 343.667 376.25 345C361.417 455.5 330.5 510.75 283.5 510.75C269.667 510.75 258.833 506.833 251 499C243.333 491.167 239.5 481.333 239.5 469.5C239.5 448.333 248.5 429.667 266.5 413.5C284.5 397.167 308.167 383.667 337.5 373C339.333 361.167 340.75 350.583 341.75 341.25L346.25 303.5C336.25 302.5 326.917 302 318.25 302C295.083 302 278 304.25 267 308.75C256 313.25 250.5 320.583 250.5 330.75C250.5 335.75 252.167 341.167 255.5 347C256.5 348.667 257 350.417 257 352.25C257 355.75 255.167 358.917 251.5 361.75C248 364.417 244.167 365.75 240 365.75C234.667 365.75 230.583 363.5 227.75 359C223.083 351.333 220.75 342.417 220.75 332.25C220.75 292.25 255.75 272.25 325.75 272.25C346.083 272.25 364.25 274.25 380.25 278.25C389.75 280.583 394.5 285.25 394.5 292.25ZM286.75 484C294.917 484 303.083 477.833 311.25 465.5C319.417 453.167 326.583 431.583 332.75 400.75C292.083 418.583 271.75 440.417 271.75 466.25C271.75 471.917 273.083 476.333 275.75 479.5C278.417 482.5 282.083 484 286.75 484ZM423.531 351C416.531 351 411.281 349.417 407.781 346.25C404.281 342.917 402.531 338.333 402.531 332.5C402.531 326.667 404.781 321.833 409.281 318C413.948 314 419.698 312 426.531 312C432.698 312 437.698 313.5 441.531 316.5C445.365 319.5 447.281 323.75 447.281 329.25C447.281 335.917 445.115 341.25 440.781 345.25C436.448 349.083 430.698 351 423.531 351ZM421.531 485.25C410.698 485.25 402.781 481.417 397.781 473.75C392.948 466.083 390.531 455.917 390.531 443.25C390.531 435.75 391.448 426.167 393.281 414.5C395.281 402.667 397.781 391.667 400.781 381.5C402.281 376.167 404.281 372.5 406.781 370.5C409.281 368.5 413.281 367.5 418.781 367.5C427.281 367.5 431.531 370.333 431.531 376C431.531 380.167 429.948 389.833 426.781 405C422.781 423.333 420.781 435.75 420.781 442.25C420.781 447.25 421.448 451.083 422.781 453.75C424.115 456.417 426.365 457.75 429.531 457.75C432.531 457.75 436.281 455.667 440.781 451.5C445.281 447.333 451.281 440.75 458.781 431.75C460.781 429.417 463.031 428.25 465.531 428.25C467.698 428.25 469.365 429.25 470.531 431.25C471.865 433.25 472.531 436 472.531 439.5C472.531 446.167 470.948 451.333 467.781 455C451.281 475.167 435.865 485.25 421.531 485.25ZM470.055 485.25C463.721 485.25 459.221 481.917 456.555 475.25C454.055 468.583 452.805 457.917 452.805 443.25C452.805 421.583 455.888 401 462.055 381.5C463.555 376.667 465.971 373.167 469.305 371C472.805 368.667 477.638 367.5 483.805 367.5C487.138 367.5 489.471 367.917 490.805 368.75C492.138 369.583 492.805 371.167 492.805 373.5C492.805 376.167 491.555 382.167 489.055 391.5C487.388 398.167 486.055 404 485.055 409C484.055 414 483.221 420.167 482.555 427.5C488.055 413.167 494.221 401.5 501.055 392.5C507.888 383.5 514.555 377.083 521.055 373.25C527.721 369.417 533.805 367.5 539.305 367.5C550.138 367.5 555.555 372.917 555.555 383.75C555.555 390.25 553.721 402 550.055 419C546.888 433.5 545.305 443.083 545.305 447.75C545.305 454.417 547.721 457.75 552.555 457.75C555.888 457.75 559.805 455.75 564.305 451.75C568.971 447.583 575.138 440.917 582.805 431.75C584.805 429.417 587.055 428.25 589.555 428.25C591.721 428.25 593.388 429.25 594.555 431.25C595.888 433.25 596.555 436 596.555 439.5C596.555 446.167 594.971 451.333 591.805 455C584.638 463.833 576.888 471.083 568.555 476.75C560.388 482.417 551.055 485.25 540.555 485.25C532.055 485.25 525.638 482.833 521.305 478C516.971 473 514.805 465.833 514.805 456.5C514.805 451.833 515.971 443.5 518.305 431.5C520.471 421 521.555 413.75 521.555 409.75C521.555 407.083 520.638 405.75 518.805 405.75C516.638 405.75 513.555 408.583 509.555 414.25C505.721 419.75 501.721 427.083 497.555 436.25C493.555 445.417 490.305 455.083 487.805 465.25C485.971 473.083 483.805 478.417 481.305 481.25C478.971 483.917 475.221 485.25 470.055 485.25ZM605.078 485.25C595.578 485.25 587.828 481.5 581.828 474C575.995 466.5 573.078 456.667 573.078 444.5C573.078 431.167 576.161 418.583 582.328 406.75C588.495 394.75 596.661 385.167 606.828 378C617.161 370.667 628.078 367 639.578 367C643.245 367 645.661 367.75 646.828 369.25C648.161 370.583 649.245 373.083 650.078 376.75C653.245 376.083 656.745 375.75 660.578 375.75C664.578 375.75 667.661 376.75 669.828 378.75C671.995 380.75 673.078 383.583 673.078 387.25C673.078 391.083 672.245 397.75 670.578 407.25C668.745 417.417 667.328 427.167 666.328 436.5C665.328 445.667 664.828 456 664.828 467.5C664.828 473.833 663.495 478.417 660.828 481.25C658.328 483.917 654.161 485.25 648.328 485.25C642.661 485.25 638.411 483.917 635.578 481.25C632.911 478.417 631.578 473.917 631.578 467.75L631.828 463.75C626.661 478.083 617.745 485.25 605.078 485.25ZM614.828 460C619.495 460 623.745 456.75 627.578 450.25C631.411 443.75 634.828 432.167 637.828 415.5L642.578 390.25C635.745 390.417 629.411 393.083 623.578 398.25C617.745 403.25 613.078 409.917 609.578 418.25C606.078 426.583 604.328 435.417 604.328 444.75C604.328 449.75 605.245 453.583 607.078 456.25C609.078 458.75 611.661 460 614.828 460ZM557.074 486.75C561.741 487.417 564.908 488.833 566.574 491C568.408 493.167 569.324 496 569.324 499.5C569.324 511 563.158 516.333 550.824 515.5L542.074 514.75C532.241 513.917 522.408 513.25 512.574 512.75C502.908 512.25 492.741 512 482.074 512H470.824C468.824 536.667 466.741 559.167 464.574 579.5L507.574 578.75C513.741 578.75 517.824 579.833 519.824 582C521.991 584.167 523.074 587.083 523.074 590.75C523.074 596.417 521.408 600.917 518.074 604.25C514.741 607.417 509.991 609 503.824 609H461.074L459.574 619.75C456.074 647.25 448.574 666.833 437.074 678.5C425.741 690.167 410.074 696 390.074 696C378.741 696 368.324 693.583 358.824 688.75C349.324 683.75 342.324 677.75 337.824 670.75C335.991 667.917 335.074 664.5 335.074 660.5C335.074 656.5 335.991 653 337.824 650C339.824 647 342.241 645.5 345.074 645.5C347.074 645.5 348.991 646.167 350.824 647.5C352.824 648.833 355.324 651.417 358.324 655.25C366.324 665.75 376.241 671 388.074 671C397.574 671 405.491 667.167 411.824 659.5C418.324 651.667 422.491 639.417 424.324 622.75L425.824 609H413.824C409.991 609 406.658 607.917 403.824 605.75C401.158 603.583 399.824 600.5 399.824 596.5C399.824 591.333 401.158 587.417 403.824 584.75C406.491 581.917 410.408 580.5 415.574 580.5C420.241 580.5 424.824 580.417 429.324 580.25C431.324 561.917 433.491 539.667 435.824 513.5C417.824 515.167 405.158 518.083 397.824 522.25C390.491 526.417 386.824 532.583 386.824 540.75C386.824 546.417 388.491 551.833 391.824 557C392.824 558.5 393.324 560 393.324 561.5C393.324 564.5 391.658 567.167 388.324 569.5C384.991 571.667 381.241 572.75 377.074 572.75C372.574 572.75 368.741 571.417 365.574 568.75C363.574 567.083 361.658 563.667 359.824 558.5C357.991 553.333 357.074 547.583 357.074 541.25C357.074 520.583 367.658 505.583 388.824 496.25C410.158 486.917 441.241 482.25 482.074 482.25C510.408 482.25 535.408 483.75 557.074 486.75ZM650.361 617.25C652.528 617.25 654.195 618.333 655.361 620.5C656.528 622.667 657.111 625.417 657.111 628.75C657.111 636.75 654.695 641.5 649.861 643C639.861 646.5 628.861 648.5 616.861 649C613.695 663 607.445 674.25 598.111 682.75C588.778 691.083 578.195 695.25 566.361 695.25C556.361 695.25 547.778 692.833 540.611 688C533.611 683.167 528.278 676.75 524.611 668.75C520.945 660.75 519.111 652.083 519.111 642.75C519.111 630.083 521.528 618.833 526.361 609C531.195 599 537.861 591.25 546.361 585.75C554.861 580.083 564.278 577.25 574.611 577.25C587.278 577.25 597.445 581.667 605.111 590.5C612.945 599.167 617.528 609.917 618.861 622.75C626.695 622.25 636.028 620.583 646.861 617.75C648.195 617.417 649.361 617.25 650.361 617.25ZM568.361 668.75C573.695 668.75 578.278 666.583 582.111 662.25C586.111 657.917 588.778 651.667 590.111 643.5C584.945 640 580.945 635.417 578.111 629.75C575.445 624.083 574.111 618.083 574.111 611.75C574.111 609.083 574.361 606.417 574.861 603.75H573.611C566.945 603.75 561.361 607 556.861 613.5C552.528 619.833 550.361 628.833 550.361 640.5C550.361 649.667 552.111 656.667 555.611 661.5C559.278 666.333 563.528 668.75 568.361 668.75ZM763.154 617.25C765.321 617.25 766.988 618.333 768.154 620.5C769.321 622.667 769.904 625.417 769.904 628.75C769.904 636.75 767.488 641.5 762.654 643C752.654 646.5 741.654 648.5 729.654 649C726.488 663 720.238 674.25 710.904 682.75C701.571 691.083 690.988 695.25 679.154 695.25C669.154 695.25 660.571 692.833 653.404 688C646.404 683.167 641.071 676.75 637.404 668.75C633.738 660.75 631.904 652.083 631.904 642.75C631.904 630.083 634.321 618.833 639.154 609C643.988 599 650.654 591.25 659.154 585.75C667.654 580.083 677.071 577.25 687.404 577.25C700.071 577.25 710.238 581.667 717.904 590.5C725.738 599.167 730.321 609.917 731.654 622.75C739.488 622.25 748.821 620.583 759.654 617.75C760.988 617.417 762.154 617.25 763.154 617.25ZM681.154 668.75C686.488 668.75 691.071 666.583 694.904 662.25C698.904 657.917 701.571 651.667 702.904 643.5C697.738 640 693.738 635.417 690.904 629.75C688.238 624.083 686.904 618.083 686.904 611.75C686.904 609.083 687.154 606.417 687.654 603.75H686.404C679.738 603.75 674.154 607 669.654 613.5C665.321 619.833 663.154 628.833 663.154 640.5C663.154 649.667 664.904 656.667 668.404 661.5C672.071 666.333 676.321 668.75 681.154 668.75ZM839.447 638.25C841.281 651.917 843.947 665.417 847.447 678.75C848.114 680.917 848.447 683.167 848.447 685.5C848.447 693 843.864 696.75 834.697 696.75C829.531 696.75 825.531 695.333 822.697 692.5C820.031 689.667 817.531 684.333 815.197 676.5L814.947 675.5C808.614 683.333 802.864 688.583 797.697 691.25C792.697 693.917 786.864 695.25 780.197 695.25C770.031 695.25 761.614 691.5 754.947 684C748.447 676.333 745.197 666.417 745.197 654.25C745.197 640.917 748.031 628.583 753.697 617.25C759.364 605.917 767.114 596.667 776.947 589.5C786.781 582.167 797.781 577.75 809.947 576.25C813.114 544.75 819.114 517.333 827.947 494C836.947 470.667 848.864 459 863.697 459C870.864 459 876.781 462.25 881.447 468.75C886.281 475.25 888.697 485.083 888.697 498.25C888.697 516.583 884.197 538 875.197 562.5C866.197 587 854.281 612.25 839.447 638.25ZM860.947 483.5C856.114 483.5 851.531 495.833 847.197 520.5C843.031 545.167 840.197 572 838.697 601C857.197 561 866.447 528.5 866.447 503.5C866.447 497.167 865.864 492.25 864.697 488.75C863.697 485.25 862.447 483.5 860.947 483.5ZM788.947 670C792.281 670 795.447 668.75 798.447 666.25C801.614 663.75 805.614 658.917 810.447 651.75C808.781 639.583 807.947 627 807.947 614C807.947 608.833 808.031 604.833 808.197 602C799.031 604.667 791.447 610.75 785.447 620.25C779.447 629.75 776.447 640.25 776.447 651.75C776.447 663.917 780.614 670 788.947 670Z" fill="black"/>
<path d="M391.25 303.5L390.494 302.845L390.481 302.86L390.469 302.875L391.25 303.5ZM381.25 307.25V306.25H380.341L380.255 307.155L381.25 307.25ZM379 325.5L379.99 325.641L379.991 325.633L379 325.5ZM376.25 345L377.241 345.133L377.242 345.124L376.25 345ZM251 499L250.285 499.7L250.293 499.707L251 499ZM266.5 413.5L267.168 414.244L267.172 414.241L266.5 413.5ZM337.5 373L337.842 373.94L338.398 373.738L338.488 373.153L337.5 373ZM341.75 341.25L340.757 341.132L340.756 341.143L341.75 341.25ZM346.25 303.5L347.243 303.618L347.364 302.606L346.35 302.505L346.25 303.5ZM267 308.75L266.621 307.824L266.621 307.824L267 308.75ZM255.5 347L254.632 347.496L254.637 347.505L254.643 347.514L255.5 347ZM251.5 361.75L252.106 362.545L252.111 362.541L251.5 361.75ZM227.75 359L226.896 359.52L226.9 359.526L226.904 359.533L227.75 359ZM380.25 278.25L380.007 279.22L380.011 279.221L380.25 278.25ZM311.25 465.5L312.084 466.052L312.084 466.052L311.25 465.5ZM332.75 400.75L333.731 400.946L334.107 399.063L332.348 399.834L332.75 400.75ZM275.75 479.5L274.985 480.144L274.994 480.154L275.003 480.164L275.75 479.5ZM393.5 292.25C393.5 297.128 392.44 300.6 390.494 302.845L392.006 304.155C394.393 301.4 395.5 297.372 395.5 292.25H393.5ZM390.469 302.875C388.734 305.045 385.757 306.25 381.25 306.25V308.25C386.076 308.25 389.766 306.955 392.031 304.125L390.469 302.875ZM380.255 307.155C379.923 310.634 379.176 316.699 378.009 325.367L379.991 325.633C381.158 316.967 381.91 310.866 382.246 307.345L380.255 307.155ZM378.01 325.359C376.344 337.018 375.426 343.531 375.258 344.876L377.242 345.124C377.408 343.802 378.322 337.315 379.99 325.641L378.01 325.359ZM375.259 344.867C367.848 400.072 356.432 441.363 341.065 468.824C325.713 496.258 306.514 509.75 283.5 509.75V511.75C307.486 511.75 327.245 497.617 342.81 469.801C358.36 442.012 369.818 400.428 377.241 345.133L375.259 344.867ZM283.5 509.75C269.862 509.75 259.309 505.895 251.707 498.293L250.293 499.707C258.358 507.772 269.471 511.75 283.5 511.75V509.75ZM251.715 498.301C244.246 490.67 240.5 481.095 240.5 469.5H238.5C238.5 481.572 242.42 491.663 250.285 499.699L251.715 498.301ZM240.5 469.5C240.5 448.659 249.346 430.251 267.168 414.244L265.832 412.756C247.654 429.082 238.5 448.008 238.5 469.5H240.5ZM267.172 414.241C285.053 398.015 308.597 384.574 337.842 373.94L337.158 372.06C307.736 382.759 283.947 396.318 265.828 412.759L267.172 414.241ZM338.488 373.153C340.323 361.308 341.742 350.709 342.744 341.357L340.756 341.143C339.758 350.458 338.343 361.025 336.512 372.847L338.488 373.153ZM342.743 341.368L347.243 303.618L345.257 303.382L340.757 341.132L342.743 341.368ZM346.35 302.505C336.322 301.502 326.955 301 318.25 301V303C326.879 303 336.178 303.498 346.151 304.495L346.35 302.505ZM318.25 301C295.053 301 277.808 303.248 266.621 307.824L267.379 309.676C278.192 305.252 295.114 303 318.25 303V301ZM266.621 307.824C261.003 310.123 256.711 313.177 253.825 317.025C250.931 320.884 249.5 325.475 249.5 330.75H251.5C251.5 325.858 252.819 321.7 255.425 318.225C258.039 314.74 261.997 311.877 267.379 309.676L266.621 307.824ZM249.5 330.75C249.5 335.974 251.241 341.562 254.632 347.496L256.368 346.504C253.093 340.772 251.5 335.526 251.5 330.75H249.5ZM254.643 347.514C255.555 349.035 256 350.609 256 352.25H258C258 350.224 257.445 348.298 256.357 346.485L254.643 347.514ZM256 352.25C256 355.346 254.396 358.248 250.889 360.959L252.111 362.541C255.937 359.585 258 356.154 258 352.25H256ZM250.894 360.955C247.558 363.496 243.935 364.75 240 364.75V366.75C244.398 366.75 248.442 365.337 252.106 362.545L250.894 360.955ZM240 364.75C235.009 364.75 231.246 362.675 228.596 358.467L226.904 359.533C229.921 364.325 234.324 366.75 240 366.75V364.75ZM228.604 358.48C224.045 350.99 221.75 342.258 221.75 332.25H219.75C219.75 342.575 222.122 351.677 226.896 359.52L228.604 358.48ZM221.75 332.25C221.75 312.612 230.305 297.942 247.496 288.118C264.771 278.247 290.812 273.25 325.75 273.25V271.25C290.688 271.25 264.229 276.253 246.504 286.382C228.695 296.558 219.75 311.888 219.75 332.25H221.75ZM325.75 273.25C346.02 273.25 364.103 275.244 380.007 279.22L380.493 277.28C364.397 273.256 346.147 271.25 325.75 271.25V273.25ZM380.011 279.221C384.664 280.364 388.036 282.052 390.237 284.213C392.41 286.348 393.5 289.003 393.5 292.25H395.5C395.5 288.497 394.215 285.318 391.638 282.787C389.089 280.282 385.336 278.47 380.489 277.279L380.011 279.221ZM286.75 485C295.451 485 303.878 478.444 312.084 466.052L310.416 464.948C302.288 477.223 294.383 483 286.75 483V485ZM312.084 466.052C320.365 453.545 327.561 431.796 333.731 400.946L331.769 400.554C325.606 431.371 318.468 452.788 310.416 464.948L312.084 466.052ZM332.348 399.834C291.599 417.704 270.75 439.784 270.75 466.25H272.75C272.75 441.049 292.568 419.463 333.152 401.666L332.348 399.834ZM270.75 466.25C270.75 472.066 272.119 476.74 274.985 480.144L276.515 478.856C274.048 475.926 272.75 471.768 272.75 466.25H270.75ZM275.003 480.164C277.891 483.413 281.849 485 286.75 485V483C282.318 483 278.943 481.587 276.497 478.836L275.003 480.164ZM407.781 346.25L407.092 346.974L407.101 346.983L407.11 346.992L407.781 346.25ZM409.281 318L409.93 318.761L409.932 318.759L409.281 318ZM441.531 316.5L440.915 317.288L441.531 316.5ZM440.781 345.25L441.444 345.999L441.452 345.992L441.46 345.985L440.781 345.25ZM397.781 473.75L396.935 474.283L396.939 474.29L396.944 474.296L397.781 473.75ZM393.281 414.5L392.295 414.333L392.293 414.345L393.281 414.5ZM400.781 381.5L401.74 381.783L401.744 381.771L400.781 381.5ZM426.781 405L427.758 405.213L427.76 405.204L426.781 405ZM440.781 451.5L440.102 450.766L440.102 450.766L440.781 451.5ZM458.781 431.75L458.022 431.099L458.013 431.11L458.781 431.75ZM470.531 431.25L469.667 431.754L469.683 431.78L469.699 431.805L470.531 431.25ZM467.781 455L467.024 454.346L467.016 454.356L467.007 454.367L467.781 455ZM423.531 350C416.662 350 411.697 348.444 408.452 345.508L407.11 346.992C410.866 350.389 416.4 352 423.531 352V350ZM408.471 345.526C405.209 342.42 403.531 338.121 403.531 332.5H401.531C401.531 338.546 403.353 343.414 407.092 346.974L408.471 345.526ZM403.531 332.5C403.531 326.964 405.649 322.408 409.93 318.761L408.633 317.239C403.913 321.259 401.531 326.369 401.531 332.5H403.531ZM409.932 318.759C414.397 314.932 419.908 313 426.531 313V311C419.488 311 413.499 313.068 408.63 317.241L409.932 318.759ZM426.531 313C432.535 313 437.3 314.458 440.915 317.288L442.148 315.712C438.096 312.542 432.861 311 426.531 311V313ZM440.915 317.288C444.472 320.072 446.281 324.012 446.281 329.25H448.281C448.281 323.488 446.257 318.928 442.148 315.712L440.915 317.288ZM446.281 329.25C446.281 335.678 444.203 340.73 440.103 344.515L441.46 345.985C446.026 341.77 448.281 336.156 448.281 329.25H446.281ZM440.119 344.501C436.009 348.137 430.514 350 423.531 350V352C430.881 352 436.887 350.03 441.444 345.999L440.119 344.501ZM421.531 484.25C410.964 484.25 403.398 480.532 398.619 473.204L396.944 474.296C402.164 482.301 410.432 486.25 421.531 486.25V484.25ZM398.627 473.217C393.927 465.761 391.531 455.8 391.531 443.25H389.531C389.531 456.033 391.969 466.405 396.935 474.283L398.627 473.217ZM391.531 443.25C391.531 435.823 392.44 426.296 394.269 414.655L392.293 414.345C390.456 426.037 389.531 435.677 389.531 443.25H391.531ZM394.267 414.667C396.261 402.868 398.753 391.907 401.74 381.783L399.822 381.217C396.809 391.426 394.301 402.466 392.295 414.333L394.267 414.667ZM401.744 381.771C403.224 376.508 405.15 373.085 407.406 371.281L406.157 369.719C403.412 371.915 401.338 375.826 399.819 381.229L401.744 381.771ZM407.406 371.281C409.64 369.493 413.361 368.5 418.781 368.5V366.5C413.202 366.5 408.922 367.507 406.157 369.719L407.406 371.281ZM418.781 368.5C422.952 368.5 425.905 369.201 427.789 370.457C429.602 371.666 430.531 373.458 430.531 376H432.531C432.531 372.875 431.336 370.418 428.898 368.793C426.533 367.216 423.111 366.5 418.781 366.5V368.5ZM430.531 376C430.531 380.041 428.976 389.596 425.802 404.796L427.76 405.204C430.92 390.071 432.531 380.292 432.531 376H430.531ZM425.804 404.787C421.808 423.105 419.781 435.625 419.781 442.25H421.781C421.781 435.875 423.755 423.562 427.758 405.213L425.804 404.787ZM419.781 442.25C419.781 447.313 420.452 451.328 421.887 454.197L423.676 453.303C422.444 450.839 421.781 447.187 421.781 442.25H419.781ZM421.887 454.197C422.627 455.678 423.646 456.833 424.959 457.61C426.268 458.386 427.806 458.75 429.531 458.75V456.75C428.089 456.75 426.92 456.447 425.979 455.89C425.041 455.334 424.269 454.489 423.676 453.303L421.887 454.197ZM429.531 458.75C432.941 458.75 436.94 456.42 441.461 452.234L440.102 450.766C435.623 454.913 432.121 456.75 429.531 456.75V458.75ZM441.461 452.234C446.009 448.022 452.042 441.399 459.549 432.39L458.013 431.11C450.521 440.101 444.554 446.644 440.102 450.766L441.461 452.234ZM459.541 432.401C461.398 430.234 463.389 429.25 465.531 429.25V427.25C462.674 427.25 460.165 428.6 458.022 431.099L459.541 432.401ZM465.531 429.25C467.313 429.25 468.665 430.035 469.667 431.754L471.395 430.746C470.064 428.465 468.082 427.25 465.531 427.25V429.25ZM469.699 431.805C470.884 433.581 471.531 436.112 471.531 439.5H473.531C473.531 435.888 472.846 432.919 471.363 430.695L469.699 431.805ZM471.531 439.5C471.531 446.017 469.984 450.92 467.024 454.346L468.538 455.654C471.912 451.747 473.531 446.316 473.531 439.5H471.531ZM467.007 454.367C450.552 474.479 435.393 484.25 421.531 484.25V486.25C436.337 486.25 452.011 475.854 468.555 455.633L467.007 454.367ZM456.555 475.25L455.618 475.601L455.622 475.611L455.626 475.621L456.555 475.25ZM462.055 381.5L463.008 381.802L463.01 381.796L462.055 381.5ZM469.305 371L469.85 371.838L469.859 371.832L469.305 371ZM489.055 391.5L488.089 391.241L488.087 391.249L488.085 391.257L489.055 391.5ZM482.555 427.5L481.559 427.409L483.488 427.858L482.555 427.5ZM501.055 392.5L500.258 391.895L500.258 391.895L501.055 392.5ZM521.055 373.25L520.556 372.383L520.547 372.389L521.055 373.25ZM550.055 419L551.032 419.213L551.032 419.211L550.055 419ZM564.305 451.75L564.969 452.497L564.971 452.496L564.305 451.75ZM582.805 431.75L582.045 431.099L582.038 431.108L582.805 431.75ZM594.555 431.25L593.691 431.754L593.706 431.78L593.723 431.805L594.555 431.25ZM591.805 455L591.048 454.346L591.038 454.358L591.028 454.37L591.805 455ZM568.555 476.75L567.992 475.923L567.985 475.928L568.555 476.75ZM521.305 478L520.549 478.655L520.555 478.661L520.56 478.668L521.305 478ZM518.305 431.5L517.325 431.298L517.323 431.309L518.305 431.5ZM509.555 414.25L508.738 413.673L508.734 413.678L509.555 414.25ZM497.555 436.25L496.644 435.836L496.641 435.843L496.638 435.85L497.555 436.25ZM487.805 465.25L486.834 465.011L486.831 465.022L487.805 465.25ZM481.305 481.25L480.555 480.588L480.552 480.591L481.305 481.25ZM470.055 484.25C467.073 484.25 464.581 483.469 462.525 481.946C460.461 480.417 458.767 478.088 457.483 474.879L455.626 475.621C457.009 479.079 458.899 481.749 461.334 483.554C463.779 485.364 466.703 486.25 470.055 486.25V484.25ZM457.491 474.899C455.058 468.41 453.805 457.896 453.805 443.25H451.805C451.805 457.937 453.052 468.756 455.618 475.601L457.491 474.899ZM453.805 443.25C453.805 421.68 456.874 401.198 463.008 381.802L461.101 381.198C454.902 400.802 451.805 421.487 451.805 443.25H453.805ZM463.01 381.796C464.46 377.124 466.761 373.846 469.85 371.838L468.76 370.162C465.182 372.487 462.65 376.209 461.1 381.204L463.01 381.796ZM469.859 371.832C473.135 369.648 477.748 368.5 483.805 368.5V366.5C477.528 366.5 472.474 367.685 468.75 370.168L469.859 371.832ZM483.805 368.5C487.118 368.5 489.199 368.926 490.275 369.598L491.335 367.902C489.744 366.908 487.158 366.5 483.805 366.5V368.5ZM490.275 369.598C491.19 370.17 491.805 371.332 491.805 373.5H493.805C493.805 371.001 493.086 368.996 491.335 367.902L490.275 369.598ZM491.805 373.5C491.805 374.721 491.512 376.799 490.888 379.796C490.269 382.77 489.336 386.584 488.089 391.241L490.021 391.759C491.273 387.083 492.216 383.23 492.846 380.204C493.472 377.201 493.805 374.945 493.805 373.5H491.805ZM488.085 391.257C486.415 397.935 485.078 403.784 484.074 408.804L486.035 409.196C487.031 404.216 488.361 398.399 490.025 391.743L488.085 391.257ZM484.074 408.804C483.065 413.85 482.227 420.055 481.559 427.409L483.551 427.591C484.215 420.279 485.045 414.15 486.035 409.196L484.074 408.804ZM483.488 427.858C488.966 413.584 495.091 402.008 501.851 393.105L500.258 391.895C493.351 400.992 487.144 412.749 481.621 427.142L483.488 427.858ZM501.851 393.105C508.641 384.162 515.216 377.854 521.563 374.111L520.547 372.389C513.894 376.312 507.135 382.838 500.258 391.895L501.851 393.105ZM521.553 374.117C528.126 370.338 534.036 368.5 539.305 368.5V366.5C533.574 366.5 527.317 368.496 520.556 372.383L521.553 374.117ZM539.305 368.5C544.567 368.5 548.33 369.815 550.785 372.27C553.24 374.724 554.555 378.487 554.555 383.75H556.555C556.555 378.179 555.161 373.817 552.199 370.855C549.237 367.893 544.876 366.5 539.305 366.5V368.5ZM554.555 383.75C554.555 390.129 552.746 401.78 549.077 418.789L551.032 419.211C554.697 402.22 556.555 390.371 556.555 383.75H554.555ZM549.078 418.787C545.916 433.264 544.305 442.956 544.305 447.75H546.305C546.305 443.211 547.86 433.736 551.032 419.213L549.078 418.787ZM544.305 447.75C544.305 451.174 544.92 453.923 546.308 455.837C547.738 457.811 549.881 458.75 552.555 458.75V456.75C550.395 456.75 548.913 456.023 547.927 454.663C546.898 453.244 546.305 450.992 546.305 447.75H544.305ZM552.555 458.75C556.266 458.75 560.418 456.542 564.969 452.497L563.64 451.003C559.191 454.958 555.51 456.75 552.555 456.75V458.75ZM564.971 452.496C569.693 448.28 575.897 441.568 583.572 432.392L582.038 431.108C574.379 440.265 568.25 446.887 563.639 451.004L564.971 452.496ZM583.564 432.401C585.421 430.234 587.412 429.25 589.555 429.25V427.25C586.697 427.25 584.188 428.6 582.045 431.099L583.564 432.401ZM589.555 429.25C591.337 429.25 592.688 430.035 593.691 431.754L595.418 430.746C594.088 428.465 592.106 427.25 589.555 427.25V429.25ZM593.723 431.805C594.907 433.581 595.555 436.112 595.555 439.5H597.555C597.555 435.888 596.869 432.919 595.387 430.695L593.723 431.805ZM595.555 439.5C595.555 446.017 594.007 450.92 591.048 454.346L592.562 455.654C595.935 451.747 597.555 446.316 597.555 439.5H595.555ZM591.028 454.37C583.915 463.137 576.235 470.318 567.992 475.923L569.117 477.577C577.541 471.849 585.361 464.53 592.581 455.63L591.028 454.37ZM567.985 475.928C559.995 481.472 550.863 484.25 540.555 484.25V486.25C551.246 486.25 560.781 483.361 569.125 477.572L567.985 475.928ZM540.555 484.25C532.246 484.25 526.139 481.894 522.049 477.332L520.56 478.668C525.137 483.773 531.864 486.25 540.555 486.25V484.25ZM522.06 477.345C517.939 472.589 515.805 465.691 515.805 456.5H513.805C513.805 465.976 516.004 473.411 520.549 478.655L522.06 477.345ZM515.805 456.5C515.805 451.942 516.952 443.697 519.286 431.691L517.323 431.309C514.991 443.303 513.805 451.724 513.805 456.5H515.805ZM519.284 431.702C521.449 421.211 522.555 413.866 522.555 409.75H520.555C520.555 413.634 519.494 420.789 517.325 431.298L519.284 431.702ZM522.555 409.75C522.555 408.333 522.317 407.093 521.691 406.183C521.019 405.206 520 404.75 518.805 404.75V406.75C519.443 406.75 519.798 406.961 520.043 407.317C520.334 407.74 520.555 408.5 520.555 409.75H522.555ZM518.805 404.75C517.323 404.75 515.767 405.69 514.191 407.139C512.574 408.624 510.756 410.814 508.738 413.673L510.372 414.827C512.354 412.019 514.077 409.959 515.544 408.611C517.051 407.226 518.12 406.75 518.805 406.75V404.75ZM508.734 413.678C504.854 419.246 500.825 426.639 496.644 435.836L498.465 436.664C502.618 427.528 506.589 420.254 510.375 414.822L508.734 413.678ZM496.638 435.85C492.614 445.071 489.347 454.792 486.834 465.011L488.776 465.489C491.263 455.375 494.495 445.762 498.471 436.65L496.638 435.85ZM486.831 465.022C485.002 472.837 482.878 477.955 480.555 480.588L482.055 481.912C484.731 478.878 486.941 473.329 488.778 465.478L486.831 465.022ZM480.552 480.591C478.482 482.957 475.068 484.25 470.055 484.25V486.25C475.375 486.25 479.46 484.876 482.057 481.909L480.552 480.591ZM581.828 474L581.039 474.614L581.047 474.625L581.828 474ZM582.328 406.75L583.215 407.212L583.218 407.207L582.328 406.75ZM606.828 378L607.404 378.817L607.407 378.816L606.828 378ZM646.828 369.25L646.039 369.864L646.077 369.913L646.121 369.957L646.828 369.25ZM650.078 376.75L649.103 376.972L649.321 377.931L650.284 377.729L650.078 376.75ZM669.828 378.75L670.506 378.015L670.506 378.015L669.828 378.75ZM670.578 407.25L671.562 407.427L671.563 407.423L670.578 407.25ZM666.328 436.5L667.322 436.608L667.322 436.607L666.328 436.5ZM660.828 481.25L660.1 480.565L660.099 480.566L660.828 481.25ZM635.578 481.25L634.85 481.935L634.871 481.957L634.893 481.978L635.578 481.25ZM631.578 467.75L630.58 467.688L630.578 467.719V467.75H631.578ZM631.828 463.75L632.826 463.812L630.887 463.411L631.828 463.75ZM627.578 450.25L628.439 450.758L628.439 450.758L627.578 450.25ZM637.828 415.5L636.845 415.315L636.844 415.323L637.828 415.5ZM642.578 390.25L643.561 390.435L643.789 389.22L642.554 389.25L642.578 390.25ZM623.578 398.25L624.229 399.009L624.235 399.004L624.241 398.999L623.578 398.25ZM609.578 418.25L610.5 418.637L610.5 418.637L609.578 418.25ZM607.078 456.25L606.254 456.817L606.275 456.846L606.297 456.875L607.078 456.25ZM605.078 484.25C595.886 484.25 588.422 480.641 582.609 473.375L581.047 474.625C587.235 482.359 595.27 486.25 605.078 486.25V484.25ZM582.617 473.386C576.955 466.106 574.078 456.507 574.078 444.5H572.078C572.078 456.826 575.035 466.894 581.039 474.614L582.617 473.386ZM574.078 444.5C574.078 431.328 577.123 418.903 583.215 407.212L581.441 406.288C575.2 418.264 572.078 431.006 572.078 444.5H574.078ZM583.218 407.207C589.317 395.338 597.381 385.883 607.404 378.817L606.252 377.183C595.942 384.45 587.673 394.162 581.439 406.293L583.218 407.207ZM607.407 378.816C617.589 371.589 628.307 368 639.578 368V366C627.85 366 616.734 369.744 606.249 377.184L607.407 378.816ZM639.578 368C643.2 368 645.179 368.759 646.039 369.864L647.617 368.636C646.144 366.741 643.29 366 639.578 366V368ZM646.121 369.957C647.243 371.079 648.277 373.338 649.103 376.972L651.053 376.528C650.212 372.828 649.08 370.088 647.535 368.543L646.121 369.957ZM650.284 377.729C653.372 377.078 656.802 376.75 660.578 376.75V374.75C656.688 374.75 653.118 375.088 649.872 375.771L650.284 377.729ZM660.578 376.75C664.418 376.75 667.225 377.708 669.15 379.485L670.506 378.015C668.098 375.792 664.739 374.75 660.578 374.75V376.75ZM669.15 379.485C671.063 381.251 672.078 383.79 672.078 387.25H674.078C674.078 383.377 672.926 380.249 670.506 378.015L669.15 379.485ZM672.078 387.25C672.078 390.986 671.26 397.574 669.593 407.077L671.563 407.423C673.229 397.926 674.078 391.181 674.078 387.25H672.078ZM669.594 407.073C667.757 417.26 666.337 427.034 665.334 436.393L667.322 436.607C668.32 427.299 669.733 417.573 671.562 407.427L669.594 407.073ZM665.334 436.392C664.329 445.602 663.828 455.972 663.828 467.5H665.828C665.828 456.028 666.327 445.732 667.322 436.608L665.334 436.392ZM663.828 467.5C663.828 473.73 662.51 478.004 660.1 480.565L661.556 481.935C664.479 478.83 665.828 473.937 665.828 467.5H663.828ZM660.099 480.566C657.875 482.938 654.045 484.25 648.328 484.25V486.25C654.278 486.25 658.782 484.895 661.558 481.934L660.099 480.566ZM648.328 484.25C642.801 484.25 638.842 482.948 636.263 480.522L634.893 481.978C637.981 484.885 642.522 486.25 648.328 486.25V484.25ZM636.306 480.565C633.892 478 632.578 473.805 632.578 467.75H630.578C630.578 474.029 631.931 478.834 634.85 481.935L636.306 480.565ZM632.576 467.812L632.826 463.812L630.83 463.688L630.58 467.688L632.576 467.812ZM630.887 463.411C628.346 470.46 624.914 475.66 620.639 479.096C616.378 482.521 611.21 484.25 605.078 484.25V486.25C611.613 486.25 617.237 484.396 621.892 480.654C626.534 476.924 630.143 471.373 632.769 464.089L630.887 463.411ZM614.828 461C620.03 461 624.543 457.366 628.439 450.758L626.717 449.742C622.947 456.134 618.96 459 614.828 459V461ZM628.439 450.758C632.371 444.091 635.811 432.352 638.812 415.677L636.844 415.323C633.845 431.982 630.452 443.409 626.717 449.742L628.439 450.758ZM638.811 415.685L643.561 390.435L641.595 390.065L636.845 415.315L638.811 415.685ZM642.554 389.25C635.452 389.424 628.899 392.202 622.915 397.501L624.241 398.999C629.924 393.965 636.038 391.41 642.603 391.25L642.554 389.25ZM622.927 397.491C616.957 402.608 612.206 409.411 608.656 417.863L610.5 418.637C613.95 410.422 618.533 403.892 624.229 399.009L622.927 397.491ZM608.656 417.863C605.103 426.323 603.328 435.288 603.328 444.75H605.328C605.328 435.545 607.053 426.844 610.5 418.637L608.656 417.863ZM603.328 444.75C603.328 449.85 604.259 453.915 606.254 456.817L607.902 455.683C606.23 453.252 605.328 449.65 605.328 444.75H603.328ZM606.297 456.875C608.485 459.609 611.354 461 614.828 461V459C611.969 459 609.672 457.891 607.859 455.625L606.297 456.875ZM557.074 486.75L557.216 485.76L557.211 485.759L557.074 486.75ZM566.574 491L565.782 491.61L565.796 491.628L565.811 491.646L566.574 491ZM550.824 515.5L550.739 516.496L550.748 516.497L550.757 516.498L550.824 515.5ZM542.074 514.75L542.16 513.754L542.159 513.754L542.074 514.75ZM512.574 512.75L512.523 513.749L512.523 513.749L512.574 512.75ZM470.824 512V511H469.902L469.828 511.919L470.824 512ZM464.574 579.5L463.58 579.394L463.46 580.52L464.592 580.5L464.574 579.5ZM507.574 578.75V577.75H507.566L507.557 577.75L507.574 578.75ZM519.824 582L519.089 582.678L519.103 582.693L519.117 582.707L519.824 582ZM518.074 604.25L518.763 604.975L518.772 604.966L518.781 604.957L518.074 604.25ZM461.074 609V608H460.204L460.084 608.862L461.074 609ZM459.574 619.75L458.584 619.612L458.582 619.624L459.574 619.75ZM437.074 678.5L436.362 677.798L436.357 677.803L437.074 678.5ZM358.824 688.75L358.358 689.635L358.371 689.641L358.824 688.75ZM337.824 670.75L338.665 670.209L338.664 670.207L337.824 670.75ZM337.824 650L336.992 649.445L336.981 649.462L336.971 649.479L337.824 650ZM350.824 647.5L350.236 648.309L350.253 648.321L350.27 648.332L350.824 647.5ZM358.324 655.25L359.12 654.644L359.112 654.634L358.324 655.25ZM411.824 659.5L411.055 658.861L411.053 658.863L411.824 659.5ZM424.324 622.75L425.318 622.859L425.318 622.858L424.324 622.75ZM425.824 609L426.818 609.108L426.939 608H425.824V609ZM403.824 605.75L403.194 606.526L403.205 606.535L403.217 606.544L403.824 605.75ZM403.824 584.75L404.531 585.457L404.542 585.446L404.552 585.435L403.824 584.75ZM429.324 580.25L429.361 581.249L430.225 581.217L430.318 580.358L429.324 580.25ZM435.824 513.5L436.82 513.589L436.927 512.394L435.732 512.504L435.824 513.5ZM397.824 522.25L397.33 521.381L397.33 521.381L397.824 522.25ZM391.824 557L390.984 557.542L390.988 557.548L390.992 557.555L391.824 557ZM388.324 569.5L388.869 570.338L388.884 570.329L388.898 570.319L388.324 569.5ZM365.574 568.75L366.218 567.985L366.214 567.982L365.574 568.75ZM359.824 558.5L360.767 558.166L360.767 558.166L359.824 558.5ZM388.824 496.25L388.423 495.334L388.421 495.335L388.824 496.25ZM556.933 487.74C561.515 488.395 564.356 489.756 565.782 491.61L567.367 490.39C565.459 487.91 561.967 486.439 557.216 485.76L556.933 487.74ZM565.811 491.646C567.458 493.593 568.324 496.179 568.324 499.5H570.324C570.324 495.821 569.357 492.741 567.338 490.354L565.811 491.646ZM568.324 499.5C568.324 505.083 566.83 508.96 564.045 511.369C561.243 513.792 556.929 514.91 550.892 514.502L550.757 516.498C557.053 516.923 561.988 515.792 565.353 512.881C568.735 509.957 570.324 505.417 570.324 499.5H568.324ZM550.91 514.504L542.16 513.754L541.989 515.746L550.739 516.496L550.91 514.504ZM542.159 513.754C532.314 512.919 522.47 512.252 512.625 511.751L512.523 513.749C522.346 514.248 532.168 514.914 541.99 515.746L542.159 513.754ZM512.626 511.751C502.94 511.25 492.756 511 482.074 511V513C492.725 513 502.875 513.25 512.523 513.749L512.626 511.751ZM482.074 511H470.824V513H482.074V511ZM469.828 511.919C467.828 536.579 465.745 559.071 463.58 579.394L465.569 579.606C467.736 559.263 469.82 536.754 471.821 512.081L469.828 511.919ZM464.592 580.5L507.592 579.75L507.557 577.75L464.557 578.5L464.592 580.5ZM507.574 579.75C510.607 579.75 513.076 580.017 515.005 580.529C516.939 581.042 518.263 581.783 519.089 582.678L520.559 581.322C519.386 580.051 517.668 579.166 515.518 578.596C513.364 578.024 510.708 577.75 507.574 577.75V579.75ZM519.117 582.707C521.06 584.65 522.074 587.293 522.074 590.75H524.074C524.074 586.874 522.922 583.683 520.531 581.293L519.117 582.707ZM522.074 590.75C522.074 596.209 520.476 600.434 517.367 603.543L518.781 604.957C522.339 601.399 524.074 596.625 524.074 590.75H522.074ZM517.385 603.525C514.294 606.462 509.824 608 503.824 608V610C510.158 610 515.188 608.371 518.763 604.975L517.385 603.525ZM503.824 608H461.074V610H503.824V608ZM460.084 608.862L458.584 619.612L460.565 619.888L462.065 609.138L460.084 608.862ZM458.582 619.624C455.093 647.043 447.634 666.363 436.362 677.798L437.786 679.202C449.515 667.304 457.056 647.457 460.566 619.876L458.582 619.624ZM436.357 677.803C425.254 689.233 409.87 695 390.074 695V697C410.278 697 426.228 691.1 437.791 679.197L436.357 677.803ZM390.074 695C378.888 695 368.628 692.616 359.278 687.859L358.371 689.641C368.02 694.551 378.594 697 390.074 697V695ZM359.29 687.865C349.899 682.923 343.049 677.028 338.665 670.209L336.983 671.291C341.6 678.472 348.749 684.577 358.358 689.635L359.29 687.865ZM338.664 670.207C336.953 667.563 336.074 664.344 336.074 660.5H334.074C334.074 664.656 335.028 668.27 336.985 671.293L338.664 670.207ZM336.074 660.5C336.074 656.658 336.953 653.344 338.678 650.521L336.971 649.479C335.029 652.656 334.074 656.342 334.074 660.5H336.074ZM338.656 650.555C340.528 647.747 342.666 646.5 345.074 646.5V644.5C341.815 644.5 339.121 646.253 336.992 649.445L338.656 650.555ZM345.074 646.5C346.835 646.5 348.55 647.082 350.236 648.309L351.412 646.691C349.432 645.251 347.313 644.5 345.074 644.5V646.5ZM350.27 648.332C352.13 649.572 354.549 652.049 357.537 655.866L359.112 654.634C356.099 650.784 353.518 648.094 351.379 646.668L350.27 648.332ZM357.529 655.856C365.693 666.571 375.89 672 388.074 672V670C376.592 670 366.956 664.929 359.12 654.644L357.529 655.856ZM388.074 672C397.888 672 406.082 668.021 412.595 660.137L411.053 658.863C404.9 666.312 397.26 670 388.074 670V672ZM412.594 660.139C419.276 652.086 423.476 639.607 425.318 622.859L423.33 622.641C421.506 639.226 417.373 651.248 411.055 658.861L412.594 660.139ZM425.318 622.858L426.818 609.108L424.83 608.892L423.33 622.642L425.318 622.858ZM425.824 608H413.824V610H425.824V608ZM413.824 608C410.193 608 407.077 606.979 404.432 604.956L403.217 606.544C406.238 608.855 409.789 610 413.824 610V608ZM404.455 604.974C402.062 603.029 400.824 600.254 400.824 596.5H398.824C398.824 600.746 400.253 604.137 403.194 606.526L404.455 604.974ZM400.824 596.5C400.824 591.498 402.113 587.876 404.531 585.457L403.117 584.043C400.202 586.958 398.824 591.169 398.824 596.5H400.824ZM404.552 585.435C406.974 582.863 410.589 581.5 415.574 581.5V579.5C410.226 579.5 406.008 580.971 403.096 584.065L404.552 585.435ZM415.574 581.5C420.253 581.5 424.848 581.416 429.361 581.249L429.287 579.251C424.8 579.417 420.229 579.5 415.574 579.5V581.5ZM430.318 580.358C432.319 562.016 434.487 539.76 436.82 513.589L434.828 513.411C432.495 539.574 430.329 561.817 428.33 580.142L430.318 580.358ZM435.732 512.504C417.716 514.172 404.863 517.101 397.33 521.381L398.318 523.119C405.452 519.066 417.932 516.161 435.916 514.496L435.732 512.504ZM397.33 521.381C389.697 525.718 385.824 532.209 385.824 540.75H387.824C387.824 532.957 391.285 527.116 398.318 523.119L397.33 521.381ZM385.824 540.75C385.824 546.625 387.556 552.228 390.984 557.542L392.665 556.458C389.426 551.438 387.824 546.208 387.824 540.75H385.824ZM390.992 557.555C391.905 558.924 392.324 560.234 392.324 561.5H394.324C394.324 559.766 393.743 558.076 392.656 556.445L390.992 557.555ZM392.324 561.5C392.324 564.065 390.921 566.462 387.751 568.681L388.898 570.319C392.394 567.872 394.324 564.935 394.324 561.5H392.324ZM387.779 568.662C384.616 570.718 381.057 571.75 377.074 571.75V573.75C381.425 573.75 385.366 572.616 388.869 570.338L387.779 568.662ZM377.074 571.75C372.788 571.75 369.189 570.486 366.218 567.985L364.93 569.515C368.293 572.347 372.361 573.75 377.074 573.75V571.75ZM366.214 567.982C364.437 566.501 362.593 563.312 360.767 558.166L358.882 558.834C360.722 564.021 362.711 567.666 364.934 569.518L366.214 567.982ZM360.767 558.166C358.977 553.122 358.074 547.487 358.074 541.25H356.074C356.074 547.68 357.005 553.545 358.882 558.834L360.767 558.166ZM358.074 541.25C358.074 531.096 360.671 522.387 365.829 515.077C370.992 507.759 378.768 501.777 389.228 497.165L388.421 495.335C377.714 500.056 369.615 506.241 364.195 513.923C358.769 521.613 356.074 530.737 356.074 541.25H358.074ZM389.225 497.166C410.37 487.915 441.29 483.25 482.074 483.25V481.25C441.191 481.25 409.945 485.918 388.423 495.334L389.225 497.166ZM482.074 483.25C510.374 483.25 535.327 484.748 556.937 487.741L557.211 485.759C535.488 482.752 510.441 481.25 482.074 481.25V483.25ZM655.361 620.5L654.481 620.974L654.481 620.974L655.361 620.5ZM649.861 643L649.565 642.045L649.548 642.05L649.531 642.056L649.861 643ZM616.861 649L616.82 648.001L616.055 648.033L615.886 648.779L616.861 649ZM598.111 682.75L598.777 683.496L598.785 683.489L598.111 682.75ZM540.611 688L540.043 688.823L540.052 688.829L540.611 688ZM526.361 609L527.259 609.441L527.262 609.435L526.361 609ZM546.361 585.75L546.905 586.59L546.916 586.582L546.361 585.75ZM605.111 590.5L604.356 591.155L604.363 591.163L604.369 591.171L605.111 590.5ZM618.861 622.75L617.867 622.853L617.966 623.809L618.925 623.748L618.861 622.75ZM646.861 617.75L646.619 616.78L646.608 616.783L646.861 617.75ZM582.111 662.25L581.377 661.572L581.369 661.579L581.362 661.587L582.111 662.25ZM590.111 643.5L591.098 643.661L591.201 643.03L590.672 642.672L590.111 643.5ZM578.111 629.75L577.207 630.176L577.212 630.187L577.217 630.197L578.111 629.75ZM574.861 603.75L575.844 603.934L576.066 602.75H574.861V603.75ZM556.861 613.5L556.039 612.931L556.036 612.935L556.861 613.5ZM555.611 661.5L554.801 662.087L554.808 662.096L554.815 662.104L555.611 661.5ZM650.361 618.25C652.103 618.25 653.46 619.078 654.481 620.974L656.242 620.026C654.93 617.589 652.953 616.25 650.361 616.25V618.25ZM654.481 620.974C655.546 622.953 656.111 625.526 656.111 628.75H658.111C658.111 625.307 657.51 622.381 656.242 620.026L654.481 620.974ZM656.111 628.75C656.111 632.665 655.518 635.677 654.408 637.859C653.314 640.008 651.709 641.38 649.565 642.045L650.158 643.955C652.847 643.12 654.867 641.367 656.19 638.766C657.497 636.198 658.111 632.835 658.111 628.75H656.111ZM649.531 642.056C639.635 645.52 628.734 647.504 616.82 648.001L616.903 649.999C628.988 649.496 640.087 647.48 650.192 643.944L649.531 642.056ZM615.886 648.779C612.758 662.608 606.6 673.667 597.438 682.011L598.785 683.489C608.29 674.833 614.631 663.392 617.837 649.221L615.886 648.779ZM597.445 682.004C588.284 690.184 577.934 694.25 566.361 694.25V696.25C578.455 696.25 589.272 691.983 598.777 683.496L597.445 682.004ZM566.361 694.25C556.528 694.25 548.147 691.876 541.17 687.171L540.052 688.829C547.409 693.791 556.194 696.25 566.361 696.25V694.25ZM541.18 687.177C534.333 682.45 529.115 676.176 525.52 668.333L523.702 669.167C527.441 677.324 532.89 683.884 540.043 688.823L541.18 687.177ZM525.52 668.333C521.917 660.472 520.111 651.948 520.111 642.75H518.111C518.111 652.218 519.972 661.028 523.702 669.167L525.52 668.333ZM520.111 642.75C520.111 630.212 522.503 619.117 527.259 609.441L525.464 608.559C520.553 618.549 518.111 629.954 518.111 642.75H520.111ZM527.262 609.435C532.023 599.584 538.573 591.981 546.905 586.59L545.818 584.91C537.15 590.519 530.366 598.416 525.461 608.565L527.262 609.435ZM546.916 586.582C555.25 581.026 564.473 578.25 574.611 578.25V576.25C564.083 576.25 554.473 579.14 545.807 584.918L546.916 586.582ZM574.611 578.25C587.015 578.25 596.896 582.561 604.356 591.155L605.867 589.845C597.993 580.773 587.541 576.25 574.611 576.25V578.25ZM604.369 591.171C612.046 599.663 616.553 610.208 617.867 622.853L619.856 622.647C618.503 609.625 613.844 598.67 605.853 589.829L604.369 591.171ZM618.925 623.748C626.843 623.243 636.243 621.561 647.114 618.717L646.608 616.783C635.813 619.606 626.546 621.257 618.798 621.752L618.925 623.748ZM647.104 618.72C648.385 618.4 649.467 618.25 650.361 618.25V616.25C649.256 616.25 648.004 616.434 646.619 616.78L647.104 618.72ZM568.361 669.75C574.007 669.75 578.855 667.44 582.86 662.913L581.362 661.587C577.701 665.727 573.382 667.75 568.361 667.75V669.75ZM582.846 662.928C587.023 658.404 589.746 651.946 591.098 643.661L589.124 643.339C587.81 651.387 585.2 657.43 581.377 661.572L582.846 662.928ZM590.672 642.672C585.65 639.27 581.764 634.818 579.006 629.303L577.217 630.197C580.126 636.015 584.24 640.73 589.55 644.328L590.672 642.672ZM579.016 629.324C576.413 623.792 575.111 617.938 575.111 611.75H573.111C573.111 618.229 574.476 624.374 577.207 630.176L579.016 629.324ZM575.111 611.75C575.111 609.146 575.355 606.541 575.844 603.934L573.878 603.566C573.367 606.292 573.111 609.02 573.111 611.75H575.111ZM574.861 602.75H573.611V604.75H574.861V602.75ZM573.611 602.75C566.552 602.75 560.686 606.218 556.039 612.931L557.684 614.069C562.036 607.782 567.337 604.75 573.611 604.75V602.75ZM556.036 612.935C551.544 619.501 549.361 628.73 549.361 640.5H551.361C551.361 628.937 553.512 620.166 557.687 614.065L556.036 612.935ZM549.361 640.5C549.361 649.771 551.128 657.013 554.801 662.087L556.421 660.913C553.095 656.32 551.361 649.562 551.361 640.5H549.361ZM554.815 662.104C558.617 667.117 563.136 669.75 568.361 669.75V667.75C563.92 667.75 559.939 665.55 556.408 660.896L554.815 662.104ZM768.154 620.5L767.274 620.974L767.274 620.974L768.154 620.5ZM762.654 643L762.358 642.045L762.341 642.05L762.324 642.056L762.654 643ZM729.654 649L729.613 648.001L728.848 648.033L728.679 648.779L729.654 649ZM710.904 682.75L711.57 683.496L711.578 683.489L710.904 682.75ZM653.404 688L652.836 688.823L652.845 688.829L653.404 688ZM639.154 609L640.052 609.441L640.055 609.435L639.154 609ZM659.154 585.75L659.698 586.59L659.709 586.582L659.154 585.75ZM717.904 590.5L717.149 591.155L717.156 591.163L717.162 591.171L717.904 590.5ZM731.654 622.75L730.66 622.853L730.759 623.809L731.718 623.748L731.654 622.75ZM759.654 617.75L759.412 616.78L759.401 616.783L759.654 617.75ZM694.904 662.25L694.169 661.572L694.162 661.579L694.155 661.587L694.904 662.25ZM702.904 643.5L703.891 643.661L703.994 643.03L703.465 642.672L702.904 643.5ZM690.904 629.75L689.999 630.176L690.005 630.187L690.01 630.197L690.904 629.75ZM687.654 603.75L688.637 603.934L688.859 602.75H687.654V603.75ZM669.654 613.5L668.832 612.931L668.829 612.935L669.654 613.5ZM668.404 661.5L667.594 662.087L667.601 662.096L667.608 662.104L668.404 661.5ZM763.154 618.25C764.896 618.25 766.253 619.078 767.274 620.974L769.035 620.026C767.723 617.589 765.746 616.25 763.154 616.25V618.25ZM767.274 620.974C768.339 622.953 768.904 625.526 768.904 628.75H770.904C770.904 625.307 770.303 622.381 769.035 620.026L767.274 620.974ZM768.904 628.75C768.904 632.665 768.311 635.677 767.201 637.859C766.107 640.008 764.502 641.38 762.358 642.045L762.951 643.955C765.64 643.12 767.66 641.367 768.983 638.766C770.29 636.198 770.904 632.835 770.904 628.75H768.904ZM762.324 642.056C752.428 645.52 741.527 647.504 729.613 648.001L729.696 649.999C741.781 649.496 752.88 647.48 762.985 643.944L762.324 642.056ZM728.679 648.779C725.551 662.608 719.393 673.667 710.231 682.011L711.578 683.489C721.083 674.833 727.424 663.392 730.63 649.221L728.679 648.779ZM710.238 682.004C701.077 690.184 690.727 694.25 679.154 694.25V696.25C691.248 696.25 702.065 691.983 711.57 683.496L710.238 682.004ZM679.154 694.25C669.321 694.25 660.94 691.876 653.963 687.171L652.845 688.829C660.202 693.791 668.987 696.25 679.154 696.25V694.25ZM653.972 687.177C647.126 682.45 641.908 676.176 638.313 668.333L636.495 669.167C640.234 677.324 645.683 683.884 652.836 688.823L653.972 687.177ZM638.313 668.333C634.71 660.472 632.904 651.948 632.904 642.75H630.904C630.904 652.218 632.765 661.028 636.495 669.167L638.313 668.333ZM632.904 642.75C632.904 630.212 635.296 619.117 640.052 609.441L638.257 608.559C633.346 618.549 630.904 629.954 630.904 642.75H632.904ZM640.055 609.435C644.816 599.584 651.366 591.981 659.698 586.59L658.611 584.91C649.942 590.519 643.159 598.416 638.254 608.565L640.055 609.435ZM659.709 586.582C668.043 581.026 677.266 578.25 687.404 578.25V576.25C676.876 576.25 667.266 579.14 658.6 584.918L659.709 586.582ZM687.404 578.25C699.808 578.25 709.689 582.561 717.149 591.155L718.66 589.845C710.786 580.773 700.334 576.25 687.404 576.25V578.25ZM717.162 591.171C724.839 599.663 729.346 610.208 730.66 622.853L732.649 622.647C731.296 609.625 726.637 598.67 718.646 589.829L717.162 591.171ZM731.718 623.748C739.636 623.243 749.036 621.561 759.907 618.717L759.401 616.783C748.606 619.606 739.339 621.257 731.591 621.752L731.718 623.748ZM759.897 618.72C761.178 618.4 762.26 618.25 763.154 618.25V616.25C762.049 616.25 760.797 616.434 759.412 616.78L759.897 618.72ZM681.154 669.75C686.8 669.75 691.648 667.44 695.653 662.913L694.155 661.587C690.494 665.727 686.175 667.75 681.154 667.75V669.75ZM695.639 662.928C699.816 658.404 702.539 651.946 703.891 643.661L701.917 643.339C700.603 651.387 697.993 657.43 694.169 661.572L695.639 662.928ZM703.465 642.672C698.443 639.27 694.557 634.818 691.799 629.303L690.01 630.197C692.919 636.015 697.033 640.73 702.343 644.328L703.465 642.672ZM691.809 629.324C689.206 623.792 687.904 617.938 687.904 611.75H685.904C685.904 618.229 687.269 624.374 689.999 630.176L691.809 629.324ZM687.904 611.75C687.904 609.146 688.148 606.541 688.637 603.934L686.671 603.566C686.16 606.292 685.904 609.02 685.904 611.75H687.904ZM687.654 602.75H686.404V604.75H687.654V602.75ZM686.404 602.75C679.345 602.75 673.479 606.218 668.832 612.931L670.476 614.069C674.829 607.782 680.13 604.75 686.404 604.75V602.75ZM668.829 612.935C664.337 619.501 662.154 628.73 662.154 640.5H664.154C664.154 628.937 666.305 620.166 670.48 614.065L668.829 612.935ZM662.154 640.5C662.154 649.771 663.921 657.013 667.594 662.087L669.214 660.913C665.888 656.32 664.154 649.562 664.154 640.5H662.154ZM667.608 662.104C671.41 667.117 675.929 669.75 681.154 669.75V667.75C676.713 667.75 672.732 665.55 669.201 660.896L667.608 662.104ZM839.447 638.25L838.579 637.754L838.411 638.048L838.456 638.383L839.447 638.25ZM847.447 678.75L846.48 679.004L846.485 679.024L846.491 679.044L847.447 678.75ZM822.697 692.5L821.969 693.185L821.979 693.196L821.99 693.207L822.697 692.5ZM815.197 676.5L814.227 676.743L814.233 676.764L814.239 676.785L815.197 676.5ZM814.947 675.5L815.917 675.257L815.431 673.311L814.17 674.871L814.947 675.5ZM797.697 691.25L797.239 690.361L797.227 690.368L797.697 691.25ZM754.947 684L754.185 684.647L754.192 684.656L754.2 684.664L754.947 684ZM753.697 617.25L754.592 617.697L754.592 617.697L753.697 617.25ZM776.947 589.5L777.536 590.308L777.545 590.302L776.947 589.5ZM809.947 576.25L810.07 577.242L810.862 577.145L810.942 576.35L809.947 576.25ZM827.947 494L827.014 493.64L827.012 493.646L827.947 494ZM881.447 468.75L880.635 469.333L880.64 469.34L880.645 469.347L881.447 468.75ZM875.197 562.5L874.259 562.155L874.259 562.155L875.197 562.5ZM847.197 520.5L846.212 520.327L846.211 520.333L847.197 520.5ZM838.697 601L837.699 600.948L839.605 601.42L838.697 601ZM864.697 488.75L863.736 489.025L863.742 489.046L863.749 489.066L864.697 488.75ZM798.447 666.25L797.828 665.465L797.817 665.473L797.807 665.482L798.447 666.25ZM810.447 651.75L811.276 652.309L811.49 651.993L811.438 651.614L810.447 651.75ZM808.197 602L809.196 602.059L809.279 600.644L807.918 601.04L808.197 602ZM838.456 638.383C840.295 652.09 842.97 665.631 846.48 679.004L848.415 678.496C844.925 665.203 842.266 651.743 840.438 638.117L838.456 638.383ZM846.491 679.044C847.128 681.113 847.447 683.263 847.447 685.5H849.447C849.447 683.07 849.1 680.721 848.403 678.456L846.491 679.044ZM847.447 685.5C847.447 689.037 846.376 691.527 844.377 693.164C842.338 694.831 839.17 695.75 834.697 695.75V697.75C839.391 697.75 843.098 696.794 845.643 694.711C848.227 692.598 849.447 689.463 849.447 685.5H847.447ZM834.697 695.75C829.716 695.75 826 694.389 823.404 691.793L821.99 693.207C825.061 696.278 829.346 697.75 834.697 697.75V695.75ZM823.425 691.815C820.93 689.164 818.483 684.028 816.156 676.215L814.239 676.785C816.578 684.639 819.131 690.17 821.969 693.185L823.425 691.815ZM816.167 676.257L815.917 675.257L813.977 675.743L814.227 676.743L816.167 676.257ZM814.17 674.871C807.869 682.664 802.223 687.789 797.239 690.361L798.156 692.139C803.505 689.378 809.359 684.002 815.725 676.129L814.17 674.871ZM797.227 690.368C792.395 692.944 786.729 694.25 780.197 694.25V696.25C786.999 696.25 792.999 694.889 798.168 692.132L797.227 690.368ZM780.197 694.25C770.312 694.25 762.169 690.619 755.695 683.336L754.2 684.664C761.059 692.381 769.749 696.25 780.197 696.25V694.25ZM755.71 683.353C749.394 675.903 746.197 666.232 746.197 654.25H744.197C744.197 666.602 747.501 676.763 754.185 684.647L755.71 683.353ZM746.197 654.25C746.197 641.064 748.998 628.884 754.592 617.697L752.803 616.803C747.063 628.282 744.197 640.77 744.197 654.25H746.197ZM754.592 617.697C760.19 606.501 767.838 597.377 777.536 590.308L776.358 588.692C766.39 595.957 758.538 605.333 752.803 616.803L754.592 617.697ZM777.545 590.302C787.239 583.072 798.075 578.721 810.07 577.242L809.825 575.258C797.486 576.779 786.322 581.261 776.349 588.698L777.545 590.302ZM810.942 576.35C814.102 544.915 820.087 517.587 828.882 494.354L827.012 493.646C818.141 517.079 812.125 544.585 808.952 576.15L810.942 576.35ZM828.88 494.36C837.845 471.119 849.521 460 863.697 460V458C848.207 458 836.05 470.214 827.014 493.64L828.88 494.36ZM863.697 460C870.501 460 876.131 463.06 880.635 469.333L882.26 468.167C877.43 461.44 871.227 458 863.697 458V460ZM880.645 469.347C885.292 475.596 887.697 485.175 887.697 498.25H889.697C889.697 484.992 887.269 474.904 882.25 468.153L880.645 469.347ZM887.697 498.25C887.697 516.427 883.234 537.723 874.259 562.155L876.136 562.845C885.161 538.277 889.697 516.739 889.697 498.25H887.697ZM874.259 562.155C865.28 586.596 853.388 611.796 838.579 637.754L840.316 638.746C855.173 612.704 867.114 587.404 876.136 562.845L874.259 562.155ZM860.947 482.5C859.277 482.5 857.826 483.567 856.574 485.206C855.31 486.862 854.107 489.28 852.947 492.402C850.623 498.655 848.382 507.977 846.212 520.327L848.182 520.673C850.346 508.356 852.563 499.178 854.822 493.098C855.954 490.053 857.074 487.846 858.164 486.419C859.267 484.975 860.201 484.5 860.947 484.5V482.5ZM846.211 520.333C842.037 545.044 839.2 571.916 837.699 600.948L839.696 601.052C841.194 572.084 844.024 545.29 848.183 520.667L846.211 520.333ZM839.605 601.42C858.126 561.374 867.447 528.716 867.447 503.5H865.447C865.447 528.284 856.268 560.626 837.79 600.58L839.605 601.42ZM867.447 503.5C867.447 497.125 866.862 492.083 865.646 488.434L863.749 489.066C864.865 492.417 865.447 497.209 865.447 503.5H867.447ZM865.659 488.475C865.146 486.681 864.545 485.242 863.824 484.231C863.097 483.215 862.145 482.5 860.947 482.5V484.5C861.25 484.5 861.672 484.66 862.196 485.394C862.724 486.133 863.249 487.319 863.736 489.025L865.659 488.475ZM788.947 671C792.553 671 795.94 669.641 799.087 667.018L797.807 665.482C794.954 667.859 792.008 669 788.947 669V671ZM799.067 667.035C802.364 664.432 806.436 659.487 811.276 652.309L809.618 651.191C804.792 658.347 800.864 663.068 797.828 665.465L799.067 667.035ZM811.438 651.614C809.778 639.495 808.947 626.957 808.947 614H806.947C806.947 627.043 807.783 639.672 809.457 651.886L811.438 651.614ZM808.947 614C808.947 608.84 809.031 604.863 809.196 602.059L807.199 601.941C807.031 604.804 806.947 608.827 806.947 614H808.947ZM807.918 601.04C798.476 603.786 790.708 610.048 784.602 619.716L786.293 620.784C792.187 611.452 799.585 605.547 808.477 602.96L807.918 601.04ZM784.602 619.716C778.498 629.38 775.447 640.066 775.447 651.75H777.447C777.447 640.434 780.396 630.12 786.293 620.784L784.602 619.716ZM775.447 651.75C775.447 657.916 776.498 662.718 778.747 666.003C781.044 669.355 784.501 671 788.947 671V669C785.061 669 782.268 667.603 780.397 664.872C778.48 662.074 777.447 657.75 777.447 651.75H775.447Z" fill="black"/>
<path d="M475.669 270.877C475.669 270.877 483.837 267.013 487.209 270.373C490.581 273.734 488.63 278.774 485.962 283.31C483.294 287.846 445.837 342.621 433.224 353.205C429.419 356.414 424.64 358.402 419.569 358.885C414.498 359.368 409.396 358.321 404.992 355.895C395.938 351.022 397.18 334.555 400.375 327.669C408.069 311.606 420.529 298.005 436.24 288.52C448.575 281.147 461.813 275.222 475.661 270.877" fill="#009867"/>
</g>
<defs>
<radialGradient id="paint0_radial_24_24" cx="0" cy="0" r="1" gradientUnits="userSpaceOnUse" gradientTransform="translate(66.2688 1001.57) scale(1300.1)">
<stop offset="0.09" stop-color="#21FA44"/>
<stop offset="0.78" stop-color="#21B3D3"/>
</radialGradient>
<radialGradient id="paint1_radial_24_24" cx="0" cy="0" r="1" gradientUnits="userSpaceOnUse" gradientTransform="translate(709.291 968.684) scale(1144.1)">
<stop offset="0.166667" stop-color="#3EBE29"/>
<stop offset="0.64" stop-color="#34B8CA" stop-opacity="0"/>
<stop offset="0.973958" stop-color="#CCBD33"/>
</radialGradient>
<linearGradient id="paint2_linear_24_24" x1="9074.14" y1="8697.19" x2="9074.14" y2="2889.96" gradientUnits="userSpaceOnUse">
<stop stop-color="#009E77"/>
<stop offset="1" stop-color="#00D291"/>
</linearGradient>
<linearGradient id="paint3_linear_24_24" x1="345.879" y1="705.933" x2="345.879" y2="362.984" gradientUnits="userSpaceOnUse">
<stop stop-color="#009E77"/>
<stop offset="1" stop-color="#00D291"/>
</linearGradient>
<clipPath id="clip0_24_24">
<rect width="1024" height="1024" fill="white"/>
</clipPath>
</defs>
</svg>
